<svg width="18" height="24" viewBox="0 0 18 24" fill="none" xmlns="http://www.w3.org/2000/svg">
<g id="Group">
<path id="Vector" d="M15.1359 0.0187492C15.1219 0.0328121 14.1516 0.224998 12.9797 0.445312C11.8125 0.665625 10.7672 0.876562 10.6594 0.914062C10.0031 1.15781 9.63751 1.97812 9.8672 2.67656C10.0266 3.14531 10.6172 3.60938 11.0578 3.60938C11.1656 3.60938 11.1234 3.66562 10.7156 4.07344L10.2516 4.5375L9.77813 4.28437C9.22032 3.98906 8.49376 3.74531 7.8797 3.6375C7.31251 3.53906 6.24376 3.53906 5.69063 3.63281C2.68126 4.14844 0.45001 6.66094 0.295322 9.70312C0.164072 12.3375 1.60313 14.7469 3.98907 15.8906C4.25157 16.0125 4.62657 16.1625 4.82345 16.2234L5.1797 16.3266L5.46563 16.9031L5.74688 17.4797L5.46095 17.7656C5.30626 17.9203 5.15626 18.0469 5.13282 18.0469C5.11407 18.0469 4.94063 17.8969 4.75313 17.7187C4.33126 17.3062 4.07345 17.1844 3.63282 17.1844C2.85001 17.1797 2.24532 17.7937 2.24532 18.5859C2.24532 19.0547 2.40001 19.3594 2.87813 19.8281L3.14063 20.0812L2.2547 20.9766C1.28438 21.9562 1.21876 22.0594 1.21876 22.5938C1.21876 23.1281 1.50938 23.5969 1.98751 23.85C2.18907 23.9531 2.28751 23.9766 2.60157 23.9766C3.05626 23.9766 3.3047 23.8734 3.62813 23.5687C3.80626 23.3953 3.84376 23.3297 3.84376 23.1891C3.84376 23.0625 3.81095 22.9969 3.72188 22.9266C3.54376 22.7859 3.46407 22.8047 3.20626 23.0156C3.0797 23.1187 2.90157 23.2312 2.80313 23.2594C2.48438 23.3531 2.1422 23.2125 1.9922 22.9219C1.90782 22.7625 1.89845 22.4437 1.97345 22.2984C2.00157 22.2422 2.46563 21.75 3.0047 21.2062C3.82032 20.3906 3.98438 20.1984 3.98438 20.0906C3.98438 19.9828 3.88595 19.8562 3.52032 19.4812C2.99532 18.9422 2.94376 18.8672 2.94376 18.5859C2.94376 18.3328 3.05626 18.1172 3.24845 18C3.65626 17.7516 3.86251 17.8266 4.51407 18.4594C4.98751 18.9187 5.02501 18.9469 5.17032 18.9187C5.37657 18.8766 6.56251 17.6953 6.56251 17.5266C6.56251 17.4656 6.43595 17.2078 6.28126 16.95C4.93595 14.7188 5.24532 11.8781 7.04063 9.99844C7.92188 9.075 8.97657 8.5125 10.2469 8.26875C10.875 8.15156 12.0516 8.19844 12.6563 8.35781C14.8781 8.95781 16.4813 10.6687 16.9266 12.9141C17.0109 13.3453 17.0109 14.5922 16.9266 15.0234C16.4813 17.2687 14.8781 18.9797 12.6563 19.5797C12.0516 19.7391 10.875 19.7859 10.2469 19.6687C9.45938 19.5187 8.5922 19.1766 8.0297 18.7922C7.6922 18.5578 7.65001 18.5766 6.92345 19.3031C6.39376 19.8328 6.28126 19.9688 6.28126 20.0812C6.28126 20.1891 6.37501 20.3109 6.74532 20.6906C6.99845 20.9531 7.23282 21.2109 7.26095 21.2672C7.28907 21.3234 7.31251 21.4594 7.31251 21.5719C7.31251 22.0687 6.82032 22.3969 6.34688 22.2187C6.27657 22.1906 6.0047 21.9562 5.7422 21.7031C5.1422 21.1078 5.11876 21.1078 4.66876 21.5578C4.40157 21.825 4.34532 21.9141 4.34532 22.0359C4.34532 22.3547 4.71095 22.4625 4.98282 22.2187L5.1422 22.0828L5.43751 22.3828C5.83595 22.7859 6.11251 22.9312 6.53438 22.9594C6.96563 22.9828 7.30782 22.8609 7.58907 22.5844C7.87501 22.3031 7.97813 22.0687 8.00626 21.675C8.03907 21.1594 7.94063 20.925 7.49532 20.4609L7.1297 20.0812L7.43438 19.7719L7.74376 19.4672L8.26407 19.7344C8.80313 20.0062 9.31876 20.1891 9.93751 20.3297C10.2094 20.3953 10.5094 20.4094 11.25 20.4094C12.1359 20.4094 12.2484 20.4 12.7031 20.2875C13.8094 20.0109 14.6438 19.5797 15.4781 18.8719C16.5609 17.9484 17.2875 16.6875 17.6109 15.1828C17.7281 14.6297 17.7281 13.3078 17.6109 12.7547C17.1563 10.6312 15.9047 9.01875 14.0016 8.10469C13.7438 7.98281 13.3734 7.8375 13.1766 7.77656L12.8203 7.66875L12.5344 7.09687L12.2484 6.52031L12.7969 5.97656L13.3453 5.42812V5.79844C13.3406 6.23906 13.4766 6.58125 13.7625 6.86719C14.0438 7.14375 14.3016 7.24219 14.7422 7.24219C15.0563 7.24219 15.1547 7.21875 15.3563 7.11562C15.6 6.98438 15.8813 6.7125 15.9984 6.48281C16.0922 6.3 16.125 6.1125 16.4813 3.77344C16.6547 2.63906 16.7953 1.575 16.7953 1.40625C16.8 0.665625 16.2234 0.0749989 15.4453 0.014061C15.2906 0 15.1547 0 15.1359 0.0187492ZM15.7734 0.834373C15.8531 0.881248 15.9609 1.0125 16.0219 1.13437L16.1297 1.35469L15.7781 3.70312C15.5297 5.35781 15.3984 6.09844 15.3422 6.20156C15.2297 6.38906 15.0563 6.51094 14.85 6.54375C14.6156 6.58594 14.4703 6.53906 14.2734 6.37031C14.0156 6.14062 13.9969 5.99062 14.1281 5.13281C14.1938 4.72969 14.2313 4.35938 14.2172 4.31719C14.1609 4.15781 14.0484 4.07812 13.8797 4.07812C13.725 4.07812 13.6359 4.15312 12.5766 5.21719C11.6813 6.1125 11.4375 6.37969 11.4375 6.47344C11.4375 6.53906 11.5219 6.72187 11.625 6.88125C11.8359 7.20937 11.9672 7.45312 11.9438 7.47656C11.9344 7.48594 11.5781 7.5 11.1422 7.50469L10.3594 7.51875L10.0781 7.18594C9.55313 6.5625 8.7422 6.04688 7.89845 5.80312C7.5797 5.71406 7.41563 5.69531 6.77345 5.69531C5.77032 5.69531 5.57813 5.76562 5.57813 6.13125C5.57813 6.29062 5.71407 6.43125 5.86876 6.43125C5.9297 6.42656 6.24376 6.4125 6.5672 6.39375C7.41563 6.34687 7.95001 6.47812 8.68595 6.90937C9.0047 7.09687 9.60001 7.62187 9.54845 7.67344C9.53438 7.6875 9.36563 7.74844 9.17813 7.81406C7.60782 8.33437 6.19688 9.55312 5.45157 11.0344C5.20313 11.5312 4.94532 12.2719 4.86563 12.7406C4.83751 12.9234 4.78595 13.0781 4.75782 13.0781C4.7297 13.0781 4.57032 12.9656 4.40157 12.825C3.86251 12.3797 3.43126 11.7094 3.22501 10.9828C3.07501 10.4625 3.07501 9.6 3.22501 9.07969C3.43595 8.33906 3.86251 7.67812 4.43438 7.20937C4.62188 7.05469 4.78595 6.88125 4.80001 6.82031C4.8422 6.66094 4.74376 6.48281 4.58438 6.41719C4.38282 6.33281 4.19063 6.45 3.6797 6.96094C2.96251 7.67812 2.55001 8.54531 2.42813 9.55312C2.32032 10.4672 2.54063 11.475 3.02813 12.2906C3.30938 12.7594 3.9797 13.4484 4.41563 13.7109L4.72501 13.8984L4.75782 14.3438C4.77657 14.5875 4.81876 14.9437 4.85626 15.1359C4.88907 15.3281 4.9172 15.4922 4.90782 15.4969C4.87032 15.5344 4.05001 15.15 3.7172 14.9391C2.55001 14.1984 1.71095 13.1391 1.28907 11.8875C1.0547 11.1891 1.01251 10.9078 1.01251 10.0078C1.0172 9.21562 1.02657 9.13125 1.16251 8.61094C1.62188 6.85781 2.82188 5.44219 4.44376 4.72969C6.14532 3.98438 8.24063 4.125 9.77813 5.09062C10.0031 5.23125 10.2375 5.34375 10.3078 5.34375C10.4063 5.34375 10.6406 5.13281 11.4797 4.29375C12.4172 3.35625 12.5297 3.225 12.5297 3.08906C12.5297 2.91562 12.3797 2.76562 12.2109 2.76562C12.15 2.76562 11.9344 2.79844 11.7328 2.83594C11.2406 2.92969 11.0203 2.925 10.8375 2.8125C10.4016 2.54531 10.3922 1.87969 10.8234 1.62187C11.0203 1.50937 15.2391 0.698437 15.4688 0.731249C15.5578 0.745312 15.6984 0.792187 15.7734 0.834373Z" fill="#74BC1F"/>
<path id="Vector_2" d="M10.5938 9.63747C9.15941 9.91403 8.0016 10.7343 7.38285 11.9156C6.40785 13.7718 6.8766 16.0687 8.49379 17.3625C9.36097 18.0562 10.3407 18.3703 11.475 18.314C13.2563 18.2297 14.775 17.0812 15.3563 15.3843C16.0735 13.2937 15.1266 11.0109 13.1485 10.0547C12.4969 9.73591 12.136 9.65153 11.3672 9.63278C11.0063 9.62341 10.6594 9.62809 10.5938 9.63747ZM12.2016 10.4297C12.5672 10.5234 12.5625 10.514 12.4407 11.1562C12.2391 12.225 11.7188 13.2093 10.9219 14.0343C10.4297 14.5453 9.93753 14.9109 9.3516 15.2015C8.92972 15.4125 8.23597 15.6562 8.05785 15.6562C7.94535 15.6562 7.81879 15.3797 7.68285 14.864C7.5516 14.3578 7.56097 14.3156 7.77191 14.2734C8.91566 14.0625 10.0875 13.139 10.6641 12C10.8985 11.5406 11.1094 10.7953 11.1094 10.4437V10.2984L11.4985 10.3265C11.7094 10.3406 12.0235 10.3875 12.2016 10.4297ZM10.3828 10.6265C10.2282 11.6953 9.4641 12.7547 8.48441 13.2609C8.10472 13.4578 7.65004 13.6218 7.60785 13.575C7.56097 13.5328 7.68754 12.9797 7.82347 12.6281C8.1891 11.6859 9.06097 10.8515 10.0453 10.5C10.4157 10.3687 10.4203 10.3734 10.3828 10.6265ZM13.5985 11.175C14.1375 11.6203 14.5688 12.2906 14.775 13.0172C14.925 13.5375 14.925 14.4 14.775 14.925C14.4797 15.9562 13.7578 16.8281 12.8203 17.2734C12.2719 17.5359 11.9625 17.5968 11.2266 17.6015C10.4953 17.6015 10.1578 17.5265 9.56254 17.2265C9.13597 17.0109 8.46566 16.4625 8.47504 16.3359C8.47972 16.3172 8.63441 16.2468 8.82191 16.1859C11.011 15.45 12.6844 13.5609 13.1157 11.3343C13.1578 11.1047 13.2188 10.9218 13.2469 10.9218C13.2703 10.9218 13.4297 11.0343 13.5985 11.175Z" fill="#74BC1F"/>
</g>
</svg>
