<svg width="60" height="70" viewBox="0 0 60 70" fill="none" xmlns="http://www.w3.org/2000/svg">
<g id="Group">
<path id="Vector" d="M2.6426 0.191406C1.71292 0.519531 1.01565 1.23047 0.673855 2.20117C0.49612 2.69336 0.468776 6.64453 0.468776 32.7988C0.468776 66.3359 0.386745 63.6016 1.43948 64.6543C2.08206 65.2969 2.95706 65.625 4.05081 65.625H4.84378V66.3496C4.84378 67.8535 5.50003 69.0566 6.66214 69.6855C7.07229 69.918 8.43948 69.9316 30 69.9316C51.5606 69.9316 52.9278 69.918 53.3379 69.6855C54.0762 69.2891 54.7324 68.4961 54.9512 67.7715C55.1289 67.1699 55.1563 64.4902 55.1563 47.8926V28.6973L54.8145 28.3691C54.3907 27.9316 53.8711 27.9316 53.4473 28.3691L53.1055 28.6973V47.9199V67.1562L52.709 67.5527L52.3125 67.9492H30H7.68753L7.29104 67.5527L6.89456 67.1562V64.5996C6.89456 62.084 6.89456 62.0566 6.55276 61.7285C6.12893 61.291 5.6094 61.291 5.18557 61.7285C4.89846 62.002 4.84378 62.1934 4.84378 62.8223V63.5742H4.07815C3.4219 63.5742 3.27151 63.5195 2.91604 63.1777L2.51956 62.7812V32.8125V2.84375L2.91604 2.44727L3.31253 2.05078H25.625H47.9375L48.334 2.44727C48.7032 2.81641 48.7305 2.92578 48.7305 3.88281C48.7305 4.45703 48.6895 4.92188 48.6348 4.92188C48.5664 4.92188 39.4883 6.4668 28.4278 8.35352C6.70315 12.0586 7.40042 11.9082 6.16995 12.9746C5.89651 13.2207 5.50003 13.7676 5.29495 14.1914L4.91214 14.9707L4.87112 36.5039C4.84378 51.7207 4.88479 58.1465 4.99417 58.3926C5.13089 58.7344 5.62307 59.0625 5.99221 59.0625C6.10159 59.0625 6.32034 58.9395 6.49807 58.8027L6.8262 58.543L6.89456 36.9414C6.96292 15.3672 6.96292 15.3262 7.25003 14.957C7.40042 14.752 7.75589 14.3828 8.04299 14.1641C8.49417 13.7949 8.6719 13.7402 9.3555 13.7402C10.6953 13.7539 11.1465 14.1367 13.211 17.0215C14.1817 18.375 15.1387 19.6602 15.3438 19.8652C15.9727 20.5352 16.711 20.8359 17.627 20.8223C18.3926 20.8223 19.6778 20.3027 35.2637 13.877C44.5196 10.0625 52.2305 6.94531 52.4082 6.94531C53.0098 6.93164 53.1055 7.27344 53.1055 9.31055C53.1055 10.9922 53.1328 11.2109 53.3926 11.5391C53.7617 12.0039 54.3633 12.0176 54.8145 11.5527C55.1426 11.2383 55.1563 11.1562 55.1563 9.29688C55.1563 6.78125 55.0196 6.27539 54.1446 5.38672C53.3242 4.58008 52.5313 4.29297 51.4649 4.42969L50.7813 4.52539V3.75977C50.7813 2.54297 50.5352 1.8457 49.8789 1.10742C48.7989 -0.0957031 50.918 0 25.5703 0C7.49612 0.0136719 3.03909 0.0410156 2.6426 0.191406ZM44.752 7.71094C44.6836 7.79297 18.3106 18.6484 17.8867 18.7852C17.3809 18.9492 16.9024 18.6211 16.2324 17.6914C15.8633 17.1855 14.9746 15.9551 14.25 14.9434C13.4434 13.8359 12.9785 13.0977 13.0879 13.0566C13.1699 13.0293 19.2813 11.9766 26.6504 10.7324C34.0196 9.47461 41.0059 8.28516 42.168 8.06641C44.3418 7.68359 44.8614 7.61523 44.752 7.71094Z" fill="white"/>
<path id="Vector_2" d="M54.9512 14.4922C54.5957 14.6699 49.8926 19.2773 41.334 27.8496C26.7324 42.4785 27.9492 41.0976 25.7617 45.541C24.5586 47.9746 24.5039 48.1113 24.6816 48.4804C24.791 48.6855 25.0371 48.959 25.2422 49.0683C25.5977 49.2734 25.6934 49.2324 28.5918 47.7969C30.2324 46.9902 31.9414 46.0605 32.3926 45.7324C32.8437 45.4043 39.0645 39.2793 46.2285 32.1015C60.5156 17.7871 59.791 18.6074 59.4082 17.3359C59.1895 16.625 57.5215 14.8476 56.7285 14.4785C56.0312 14.1504 55.6211 14.1504 54.9512 14.4922ZM56.7012 18.7578L55.8398 19.6191L55.0195 18.7988L54.1992 17.9922L55.0469 17.1308L55.9082 16.2695L56.7285 17.0898L57.5488 17.9101L56.7012 18.7578ZM43.918 31.541L33.418 42.041L32.5977 41.2207L31.7773 40.4004L42.2637 29.914L52.7637 19.414L53.584 20.2343L54.4043 21.0547L43.918 31.541ZM31.1211 42.7519L31.9004 43.5176L31.3262 43.9687C30.8203 44.3789 28.25 45.8008 28.0312 45.8008C27.9902 45.8008 28.25 45.1992 28.6191 44.4609C29.2754 43.1484 30.041 41.9726 30.2324 41.9726C30.2871 41.9726 30.6836 42.3144 31.1211 42.7519Z" fill="white"/>
<path id="Vector_3" d="M22.0703 26.3457C21.9609 26.3867 20.7441 27.5352 19.377 28.8887L16.875 31.377L15.4531 29.9551C14.2227 28.7383 13.9629 28.5332 13.5801 28.5332C13.0742 28.5332 12.5 29.0801 12.5 29.5586C12.5 29.75 13.1699 30.5293 14.4414 31.8145C16.2051 33.5918 16.4238 33.7695 16.8613 33.7695C17.3125 33.7695 17.5723 33.5371 20.3203 30.7891C23.0957 28.0273 23.3008 27.7813 23.3008 27.3301C23.3008 26.6602 22.6582 26.1406 22.0703 26.3457Z" fill="white"/>
<path id="Vector_4" d="M28.6328 27.4395C28.1816 27.6172 27.9492 27.9453 27.9492 28.4375C27.9492 29.3945 27.9766 29.3945 32.2148 29.3945C35.8105 29.3945 35.9883 29.3809 36.2207 29.1211C36.5625 28.7383 36.5352 28.082 36.166 27.7129C35.8789 27.4258 35.7695 27.4121 32.3516 27.3848C30.4238 27.3711 28.7422 27.3984 28.6328 27.4395Z" fill="white"/>
<path id="Vector_5" d="M28.7012 31.8145C28.209 31.9375 27.9492 32.2793 27.9492 32.8125C27.9492 33.6465 28.209 33.7695 30.0273 33.7695C31.8047 33.7695 32.0508 33.6602 32.0508 32.7852C32.0508 31.9922 31.709 31.8008 30.2324 31.7734C29.5352 31.7461 28.8516 31.7734 28.7012 31.8145Z" fill="white"/>
<path id="Vector_6" d="M19.377 40.9062L16.8887 43.3945L15.4668 41.9999C14.1953 40.7558 13.9902 40.6054 13.5527 40.6054C13.0195 40.6054 12.5 41.0976 12.5 41.6035C12.5 41.7949 13.2246 42.6152 14.5371 43.9277C16.4238 45.8281 16.6016 45.9648 16.9707 45.8828C17.2168 45.8144 18.3652 44.7753 20.334 42.8203C22.9863 40.1679 23.3008 39.8124 23.3008 39.416C23.3008 38.8281 22.8906 38.4179 22.3027 38.4179C21.9199 38.4179 21.5781 38.705 19.377 40.9062Z" fill="white"/>
<path id="Vector_7" d="M42.4415 39.7852C42.0997 40.127 42.086 40.7559 42.4278 41.166C42.6876 41.4805 42.756 41.4941 44.7657 41.4941H46.8439L47.172 41.1113C47.5685 40.6465 47.5821 40.3457 47.213 39.8672L46.9396 39.5117H44.8204C42.8927 39.5117 42.6876 39.5391 42.4415 39.7852Z" fill="white"/>
<path id="Vector_8" d="M38.0665 44.1602C37.6974 44.5293 37.711 45.2676 38.0802 45.6094C38.3536 45.8555 38.6544 45.8691 42.5235 45.9102L46.6935 45.9512L47.0899 45.541C47.5685 45.0625 47.6095 44.7344 47.213 44.2422L46.9395 43.8867H42.6329C38.5177 43.8867 38.3263 43.9004 38.0665 44.1602Z" fill="white"/>
<path id="Vector_9" d="M19.3769 52.9375L16.875 55.4258L15.4668 54.0312C14.2636 52.8555 13.9765 52.6367 13.6074 52.6367C13.3203 52.6367 13.0468 52.7598 12.8418 52.9785C12.1992 53.6074 12.3359 53.8809 14.4003 55.959C15.9589 57.5586 16.4921 57.9688 16.957 57.9688C17.0937 57.9688 18.5703 56.6016 20.2519 54.9336C22.9863 52.1992 23.3007 51.8438 23.3007 51.4473C23.3007 50.873 22.8906 50.4492 22.3164 50.4492C21.9336 50.4492 21.5781 50.75 19.3769 52.9375Z" fill="white"/>
<path id="Vector_10" d="M28.2226 51.8164C27.8124 52.2266 27.8535 52.9512 28.3046 53.3066C28.6601 53.5938 28.7695 53.5938 37.6015 53.5938C43.8495 53.5938 46.6249 53.5527 46.8574 53.4434C47.1992 53.293 47.4999 52.8008 47.4999 52.418C47.4999 52.3086 47.3495 52.0625 47.1581 51.8848L46.83 51.543H37.6562C28.6738 51.543 28.496 51.543 28.2226 51.8164Z" fill="white"/>
<path id="Vector_11" d="M28.2226 56.1914C27.8124 56.6016 27.8535 57.3262 28.3046 57.6816C28.6601 57.9688 28.7695 57.9688 37.6015 57.9688C43.9453 57.9688 46.6249 57.9277 46.871 57.8184C47.5683 57.5039 47.623 56.4102 46.9667 56.0684C46.789 55.959 43.7538 55.918 37.6015 55.918C28.6738 55.918 28.496 55.918 28.2226 56.1914Z" fill="white"/>
</g>
</svg>
