<svg width="60" height="60" viewBox="0 0 60 60" fill="none" xmlns="http://www.w3.org/2000/svg">
<g id="Group">
<path id="Vector" d="M19.6913 0.544079C19.5907 0.581795 19.1632 0.933807 18.7484 1.31096C17.8055 2.19099 16.2214 3.22188 14.9642 3.80019C13.5939 4.42878 12.1984 4.79336 10.1241 5.10766C9.13091 5.25852 8.07488 5.48481 7.78572 5.61053C7.13199 5.89968 6.16396 6.77971 5.86223 7.37059C5.58565 7.92375 0.833496 26.7564 0.833496 27.3221C0.833496 27.5987 0.934071 27.7998 1.16036 27.9758C1.48723 28.2398 1.62552 28.2398 6.81769 28.2398H12.1482V39.8185V51.3972L12.5253 51.7743C13.2168 52.4658 13.3676 52.3652 16.5734 49.084C18.1449 47.4748 19.4775 46.0164 19.5152 45.853C19.5655 45.6896 19.5278 44.7341 19.4398 43.7409L19.2764 41.9306L19.6913 41.4906C20.0684 41.1134 20.1438 41.0883 20.3198 41.2517C20.433 41.3523 20.7976 41.5534 21.137 41.7043C22.4571 42.2952 24.2045 41.9557 25.2606 40.8871C25.9772 40.1705 26.2663 39.5042 26.3292 38.4105C26.3795 37.5681 26.3418 37.3544 26.0777 36.7635C24.9211 34.2618 21.753 33.6835 19.8547 35.6321C19.0878 36.4115 18.7609 37.3544 18.8489 38.5488L18.9244 39.4916L18.0946 40.3465L17.2649 41.2014L17.3529 42.2323C17.3906 42.798 17.466 43.7158 17.5038 44.2689L17.5792 45.2747L15.8694 46.9719L14.1596 48.6691V36.3864C14.1596 27.649 14.1219 24.0157 14.0214 23.802C13.8831 23.4877 13.4305 23.2111 13.0785 23.2111C12.9653 23.2111 12.7139 23.3745 12.5127 23.5757C12.1607 23.9277 12.1482 23.9906 12.1482 25.0843V26.2283H7.62229C4.36618 26.2283 3.09643 26.1906 3.09643 26.0901C3.09643 25.7129 7.54686 8.27576 7.71029 8.02432C7.99944 7.55917 8.80404 7.28259 10.6395 7.006C13.9711 6.5157 16.4729 5.5351 18.7861 3.82533C19.1632 3.54875 19.4775 3.3476 19.4901 3.37274C19.5027 3.38531 19.7038 3.80019 19.9301 4.26534C20.8227 6.12598 22.7714 8.07461 25.6 9.94781C27.1338 10.9661 29.7613 12.3993 30.0882 12.3993C30.3145 12.3993 32.6402 11.1799 33.8974 10.4004C36.9147 8.5272 39.2279 6.27684 40.2462 4.22763C40.4348 3.85047 40.6108 3.52361 40.6234 3.49846C40.6485 3.47332 41.076 3.73733 41.5914 4.07677C44.0932 5.77396 46.3687 6.61628 49.6751 7.05629C50.5048 7.16944 51.2969 7.3203 51.4351 7.39573C52.0135 7.69746 52.3906 8.20033 52.6295 9.00493C52.9186 9.9981 56.9039 25.9266 56.9039 26.1026C56.9039 26.1906 55.345 26.2283 52.378 26.2283H47.8522V25.034C47.8522 23.9277 47.827 23.802 47.5379 23.5254C47.3744 23.3494 47.0853 23.2111 46.9093 23.2111C46.7333 23.2111 46.4441 23.3494 46.2807 23.5254L45.9664 23.8271V40.686V57.5322H34.8277H23.7017L23.9531 57.1802C24.0914 56.9916 24.7954 56.2499 25.512 55.5333L26.8321 54.2384L28.4915 54.3767C30.855 54.5778 30.679 54.603 31.5214 53.811L32.2631 53.0944L32.8288 53.2578C34.6266 53.7607 36.7764 52.6166 37.3673 50.844C37.6438 50.0017 37.5558 48.6188 37.1913 47.8896C36.8392 47.2107 36.1729 46.5444 35.4941 46.1924C34.7523 45.8153 33.382 45.7398 32.502 46.029C31.5339 46.3559 30.503 47.3993 30.2013 48.4051C29.9122 49.3354 29.9876 50.404 30.4025 51.2589L30.7168 51.8623L30.3647 52.2018L30.0253 52.5286L28.1144 52.3903C26.48 52.2646 26.1658 52.2646 25.9269 52.4281C25.7635 52.5286 24.456 53.8361 23.0102 55.3322C21.1873 57.2179 20.3701 58.1482 20.345 58.3745C20.2821 58.8146 20.5336 59.242 20.9359 59.4054C21.1622 59.506 25.1726 59.5437 34.2997 59.5186L47.3367 59.4809L47.6259 59.1917L47.915 58.9026L47.9527 43.5775L47.9779 28.2398H53.2455C58.3748 28.2398 58.5131 28.2273 58.84 27.9758C59.0663 27.7873 59.1668 27.5987 59.1668 27.3095C59.1668 26.5929 54.4021 7.86089 54.0752 7.30773C53.6604 6.60371 52.9186 5.92483 52.2397 5.6231C51.9254 5.47224 50.882 5.24595 49.9391 5.10766C48.9836 4.98194 47.7767 4.74307 47.2487 4.59221C45.0612 3.98876 42.7857 2.73158 41.2394 1.29839C40.5982 0.707512 40.3845 0.581795 40.0199 0.581795C39.3159 0.581795 39.0645 0.896091 38.9136 1.88927C38.6244 3.96362 36.8392 6.07569 33.4574 8.33862C32.8414 8.75349 31.8231 9.36951 31.2071 9.70895L30.0756 10.3124L29.1327 9.80952C27.8127 9.11807 25.4617 7.54659 24.368 6.61628C22.5576 5.08251 21.3885 3.32246 21.2124 1.87669C21.1119 0.984093 21.0364 0.858376 20.4959 0.63208C20.0433 0.443504 19.9804 0.430931 19.6913 0.544079ZM23.4125 36.6127C24.2925 37.0276 24.6446 37.9327 24.2925 38.863C23.7645 40.2334 22.1302 40.4597 21.1496 39.3031C20.8856 38.9888 20.8227 38.775 20.8227 38.2722C20.8227 36.8264 22.1176 35.9967 23.4125 36.6127ZM34.6015 47.9902C35.5695 48.4554 35.9215 49.7 35.3432 50.58C34.6266 51.6738 32.7785 51.6235 32.1877 50.4794C31.8859 49.9011 31.9991 48.8325 32.4014 48.4051C33.03 47.7136 33.7591 47.5753 34.6015 47.9902Z" fill="white"/>
<path id="Vector_2" d="M17.5666 5.93746C17.1894 6.41519 17.2397 6.70435 17.8306 7.58438C18.5597 8.65298 19.0375 8.85413 19.6158 8.33869C20.1438 7.87353 20.1438 7.50894 19.6283 6.72949C19.0123 5.83689 18.7483 5.6106 18.2454 5.6106C17.9437 5.6106 17.7551 5.6986 17.5666 5.93746Z" fill="white"/>
<path id="Vector_3" d="M41.34 5.6985C41.252 5.73621 40.9502 6.1008 40.6611 6.52824C40.0325 7.44598 39.9948 7.91114 40.4851 8.33858C41.0885 8.85403 41.6165 8.64031 42.3206 7.58427C42.8863 6.74196 42.9366 6.41509 42.5594 5.93736C42.308 5.62307 41.7925 5.50992 41.34 5.6985Z" fill="white"/>
<path id="Vector_4" d="M37.4553 9.85976C35.7329 11.2804 33.1683 12.9524 31.0562 14.0085L30.0379 14.5113L28.7681 13.845C26.9201 12.8519 25.16 11.733 23.488 10.4758C21.8788 9.26888 21.4765 9.14316 20.9736 9.67118C20.6467 10.0106 20.6216 10.4758 20.8982 10.8655C21.6902 11.997 29.0196 16.548 30.063 16.548C31.0436 16.548 36.8895 13.0153 38.901 11.2049C39.6428 10.5386 39.7308 10.1489 39.2908 9.58317C38.8759 9.05516 38.3479 9.13059 37.4553 9.85976Z" fill="white"/>
<path id="Vector_5" d="M12.5001 18.1823C12.1229 18.5595 12.1229 18.5846 12.1732 19.7035C12.2109 20.7219 12.2486 20.8727 12.5126 21.0864C12.9527 21.4385 13.5813 21.4007 13.8955 20.9984C14.1093 20.7219 14.1596 20.483 14.1596 19.7035C14.1596 18.4715 14.0841 18.2075 13.6441 17.9938C13.1287 17.7298 12.9275 17.7549 12.5001 18.1823Z" fill="white"/>
<path id="Vector_6" d="M46.2806 18.1195C45.9915 18.3961 45.9663 18.5218 45.9663 19.6281C45.9663 21.011 46.1423 21.3253 46.9092 21.3253C47.6887 21.3253 47.8521 21.0236 47.8521 19.5778C47.8521 18.3709 47.8395 18.3206 47.5252 18.0692C47.0852 17.7172 46.6578 17.7423 46.2806 18.1195Z" fill="white"/>
<path id="Vector_7" d="M32.854 33.9474C30.6288 34.5635 29.447 37.0275 30.3648 39.1145L30.6162 39.6928L23.4628 46.9844C16.5609 54.0121 16.2969 54.3012 16.2969 54.7538C16.2969 55.483 16.9883 55.9482 17.5918 55.6213C17.7678 55.5333 19.7038 53.6224 21.9039 51.372C24.0914 49.1217 27.2847 45.8781 28.9819 44.1683L32.0745 41.0505L32.854 41.2643C34.6643 41.7546 36.5501 40.8242 37.3296 39.0642C37.6816 38.2596 37.6816 36.927 37.3296 36.1475C36.5501 34.4252 34.5889 33.4571 32.854 33.9474ZM34.7775 36.0595C35.9718 36.8892 35.9089 38.5739 34.6518 39.2025C33.4323 39.8185 32.0117 38.951 32.0117 37.6058C32.0117 36.1978 33.646 35.2926 34.7775 36.0595Z" fill="white"/>
<path id="Vector_8" d="M12.6886 53.9116C12.2108 54.1379 12.1228 54.5905 12.1731 56.8157C12.2234 59.6443 12.0474 59.4809 15.0521 59.4809H17.3276L17.6419 59.1163C17.8807 58.8272 17.9436 58.6637 17.8807 58.362C17.7425 57.6454 17.4533 57.5323 15.7184 57.5323H14.1595V55.9608C14.1595 54.4522 14.1469 54.3642 13.8452 54.075C13.5309 53.7482 13.1412 53.6853 12.6886 53.9116Z" fill="white"/>
</g>
</svg>
