<svg width="24" height="25" viewBox="0 0 24 25" fill="none" xmlns="http://www.w3.org/2000/svg">
<g id="icon / height">
<g id="Vector">
<path d="M16.6868 2.29297L18.7903 4.39647C18.8814 4.49077 18.9318 4.61707 18.9306 4.74817C18.9295 4.87927 18.8769 5.00467 18.7842 5.09738C18.6915 5.19008 18.5661 5.24267 18.435 5.24381C18.3039 5.24494 18.1776 5.19455 18.0833 5.10347L17.1868 4.20697V22.5H16.1868V4.20697L15.2903 5.10347C15.2442 5.15122 15.189 5.18932 15.128 5.21552C15.067 5.24172 15.0014 5.25552 14.935 5.25609C14.8686 5.25667 14.8027 5.24402 14.7413 5.21888C14.6799 5.19374 14.624 5.15661 14.5771 5.10967C14.5301 5.06272 14.493 5.00689 14.4679 4.94545C14.4427 4.884 14.4301 4.81816 14.4307 4.75177C14.4312 4.68538 14.445 4.61977 14.4712 4.55877C14.4974 4.49776 14.5355 4.44259 14.5833 4.39647L16.6868 2.29297Z" fill="#74BC1F"/>
<path fill-rule="evenodd" clip-rule="evenodd" d="M12.9368 4.99997C12.9368 5.66301 12.6734 6.29889 12.2045 6.76774C11.7357 7.23658 11.0998 7.49997 10.4368 7.49997C9.77374 7.49997 9.13785 7.23658 8.66901 6.76774C8.20017 6.29889 7.93678 5.66301 7.93678 4.99997C7.93678 4.33693 8.20017 3.70104 8.66901 3.2322C9.13785 2.76336 9.77374 2.49997 10.4368 2.49997C11.0998 2.49997 11.7357 2.76336 12.2045 3.2322C12.6734 3.70104 12.9368 4.33693 12.9368 4.99997ZM11.9368 4.99997C11.9368 5.39779 11.7787 5.77932 11.4974 6.06063C11.2161 6.34193 10.8346 6.49997 10.4368 6.49997C10.039 6.49997 9.65742 6.34193 9.37612 6.06063C9.09481 5.77932 8.93678 5.39779 8.93678 4.99997C8.93678 4.60214 9.09481 4.22061 9.37612 3.93931C9.65742 3.658 10.039 3.49997 10.4368 3.49997C10.8346 3.49997 11.2161 3.658 11.4974 3.93931C11.7787 4.22061 11.9368 4.60214 11.9368 4.99997ZM12.3933 22.5C12.0189 22.5 11.658 22.36 11.3816 22.1075C11.1051 21.8551 10.9331 21.5083 10.8993 21.1355L10.5233 17H10.3498L9.97378 21.1355C9.96578 21.2252 9.94972 21.3141 9.92578 21.401C9.83808 21.7171 9.64918 21.9957 9.38802 22.1942C9.12685 22.3927 8.80781 22.5001 8.47978 22.5H8.43678C8.03895 22.5 7.65742 22.3419 7.37612 22.0606C7.09481 21.7793 6.93678 21.3978 6.93678 21V16.6035C6.69455 16.4229 6.49637 16.1898 6.35712 15.9217C6.21787 15.6536 6.14117 15.3575 6.13278 15.0555L6.00078 10.297C5.99281 10.0111 6.04624 9.72687 6.15745 9.46342C6.26867 9.19996 6.43509 8.96342 6.64549 8.76975C6.85589 8.57607 7.10538 8.42977 7.37713 8.34071C7.64887 8.25165 7.93656 8.2219 8.22078 8.25347L10.2158 8.47547C10.3631 8.49147 10.5104 8.49147 10.6578 8.47547L12.5878 8.26047C12.8767 8.22833 13.1691 8.25956 13.4447 8.35197C13.7203 8.44439 13.9725 8.59576 14.1836 8.79556C14.3947 8.99537 14.5597 9.23879 14.6672 9.50888C14.7747 9.77897 14.8219 10.0692 14.8058 10.3595L14.5418 15.111C14.5138 15.613 14.2978 16.0861 13.9368 16.436V21C13.9368 21.3978 13.7787 21.7793 13.4974 22.0606C13.2161 22.3419 12.8346 22.5 12.4368 22.5H12.3933ZM7.93678 16.6035C7.93678 16.4478 7.90044 16.2943 7.83064 16.1551C7.76085 16.016 7.65954 15.8951 7.53478 15.802C7.4135 15.7117 7.31428 15.5951 7.24456 15.461C7.17485 15.3268 7.13646 15.1786 7.13228 15.0275L7.00028 10.2695C6.99626 10.1265 7.02294 9.98437 7.07854 9.85261C7.13413 9.72085 7.21733 9.60255 7.32254 9.50569C7.42774 9.40883 7.5525 9.33565 7.68839 9.29111C7.82428 9.24656 7.96814 9.23168 8.11028 9.24747L10.1053 9.46947C10.3253 9.49397 10.5478 9.49397 10.7683 9.46947L12.6983 9.25447C12.8428 9.23839 12.989 9.25402 13.1269 9.30025C13.2647 9.34649 13.3908 9.42222 13.4964 9.52218C13.602 9.62213 13.6845 9.74391 13.7382 9.87901C13.7918 10.0141 13.8154 10.1593 13.8073 10.3045L13.5433 15.0555C13.5293 15.3065 13.4213 15.543 13.2408 15.718C13.1446 15.8112 13.0681 15.9228 13.0159 16.0461C12.9637 16.1695 12.9368 16.302 12.9368 16.436V21C12.9368 21.1326 12.8841 21.2598 12.7903 21.3535C12.6966 21.4473 12.5694 21.5 12.4368 21.5H12.3933C12.2685 21.5 12.1481 21.4533 12.056 21.3691C11.9638 21.2849 11.9065 21.1693 11.8953 21.045L11.5193 16.9095C11.4968 16.6608 11.3822 16.4296 11.1979 16.2612C11.0135 16.0928 10.7729 15.9995 10.5233 15.9995H10.3498C10.1001 15.9995 9.85951 16.0928 9.6752 16.2612C9.4909 16.4296 9.37624 16.6608 9.35378 16.9095L8.97778 21.045C8.96655 21.1692 8.90929 21.2847 8.81725 21.3689C8.7252 21.4531 8.60501 21.4999 8.48028 21.5H8.43678C8.30417 21.5 8.17699 21.4473 8.08322 21.3535C7.98945 21.2598 7.93678 21.1326 7.93678 21V16.6035Z" fill="#74BC1F"/>
</g>
</g>
</svg>
