<svg width="60" height="60" viewBox="0 0 60 60" fill="none" xmlns="http://www.w3.org/2000/svg">
<path d="M8.06603 5.41407C7.75119 5.49802 7.29994 5.67643 7.06906 5.82335C6.49187 6.15917 5.6943 7.0302 5.41095 7.62838C5.18007 8.13211 5.18007 8.19508 5.14859 14.009C5.13809 17.2412 5.14859 19.9908 5.18007 20.1167C5.25353 20.442 5.79924 20.7044 6.18753 20.6204C6.86967 20.4735 6.84868 20.6099 6.91164 14.2188L6.96412 8.43645L7.24746 8.00618C7.42587 7.73332 7.71971 7.48146 8.07652 7.30305L8.63272 7.0302H14.6985H20.7747L21.0266 6.76784C21.3939 6.41103 21.3729 5.94928 20.9846 5.55049L20.6803 5.24616L14.6565 5.25665C9.71364 5.25665 8.53827 5.28813 8.06603 5.41407Z" fill="black"/>
<path d="M39.6016 5.37205C39.0664 5.68688 38.9614 6.34802 39.3917 6.7678L39.6435 7.03016H45.3945C49.0885 7.03016 51.2923 7.07213 51.5442 7.1456C52.0584 7.28202 52.6461 7.80674 52.8875 8.34196C53.0659 8.73025 53.0868 9.17101 53.0868 14.4077V20.0642L53.3912 20.3685C53.79 20.7673 54.1678 20.7673 54.5666 20.3685L54.8709 20.0642V14.4602C54.8709 8.18454 54.8604 8.05861 54.1573 7.03016C53.7165 6.37951 53.0134 5.81281 52.2788 5.50847C51.796 5.30908 51.4602 5.29858 45.7933 5.2776C41.3646 5.25661 39.759 5.2776 39.6016 5.37205Z" fill="black"/>
<path d="M4.23555 29.5407C3.74231 30.0234 3.97319 30.8525 4.62384 31.0099C4.76027 31.0414 16.2621 31.0518 30.1881 31.0414L55.5216 31.0099L55.7734 30.716C56.1093 30.3172 56.0988 29.9604 55.721 29.5826L55.4166 29.2783H29.9468H4.48741L4.23555 29.5407Z" fill="black"/>
<path d="M53.3493 40.4548L53.0869 40.7067V46.0483C53.0869 49.7633 53.0554 51.4949 52.9715 51.7467C52.7826 52.282 52.3943 52.7647 51.901 53.0271C51.4603 53.2579 51.4393 53.2579 45.5309 53.2894C39.6541 53.3209 39.6016 53.3209 39.3707 53.5413C39.0349 53.8561 39.0454 54.4543 39.3707 54.7691L39.6226 55L45.8038 54.9685L51.985 54.937L52.5832 54.6537C53.3702 54.2864 54.0734 53.5623 54.4826 52.7017L54.8185 51.9986L54.85 46.5415C54.8709 43.5401 54.85 40.9795 54.8185 40.8536C54.6611 40.2029 53.8215 39.9721 53.3493 40.4548Z" fill="black"/>
<path d="M5.70478 40.8116C5.58934 40.8641 5.41094 41.0005 5.30599 41.1054C5.13808 41.3048 5.12759 41.6721 5.14858 46.7094L5.18006 52.1036L5.46341 52.7017C5.83071 53.4993 6.46038 54.15 7.24745 54.5802L7.9086 54.937L14.3417 54.9685L20.7642 55L21.0266 54.7376C21.3729 54.3913 21.3729 53.9086 21.0266 53.5728L20.7747 53.3104H14.9503C11.0884 53.3104 8.94754 53.2684 8.58024 53.195C8.22343 53.1215 7.9086 52.9536 7.64624 52.7227C6.89065 52.0406 6.91163 52.2295 6.91163 46.6675C6.91163 43.2253 6.88015 41.5882 6.7962 41.3468C6.71224 41.1159 6.56532 40.9585 6.32395 40.8641C6.13505 40.7801 5.95665 40.7172 5.94615 40.7276C5.92516 40.7276 5.82022 40.7696 5.70478 40.8116Z" fill="black"/>
<path d="M13.49 15.93H18.17V19.01H13.4V18.43H17.47V16.51H13.49V15.93ZM13.66 17.18H17.89V17.71H13.66V17.18ZM12.88 19.52H18.84V21.35H18.16V20.14H13.54V21.36H12.88V19.52ZM13.54 21.12H17.91V21.72H14.22V24.06H13.54V21.12ZM17.56 21.12H18.22V23.38C18.22 23.7 18.17 23.89 17.93 24C17.69 24.11 17.33 24.11 16.8 24.11C16.78 23.92 16.69 23.67 16.61 23.5C17.01 23.51 17.32 23.51 17.43 23.5C17.54 23.49 17.56 23.47 17.56 23.37V21.12ZM15.49 20.12H16.17V24.81H15.49V20.12ZM9.67 20.79C10.44 20.57 11.6 20.21 12.73 19.85L12.83 20.54C11.8 20.89 10.71 21.25 9.87 21.52L9.67 20.79ZM9.81 17.62H12.88V18.32H9.81V17.62ZM11.07 15.61H11.77V23.93C11.77 24.35 11.67 24.55 11.42 24.67C11.19 24.79 10.8 24.81 10.17 24.81C10.14 24.63 10.05 24.32 9.95 24.11C10.39 24.12 10.77 24.12 10.89 24.11C11.01 24.11 11.07 24.08 11.07 23.93V15.61ZM23.37 17.04H29.31V17.73H23.37V17.04ZM24.77 15.61H25.49V19.04H24.77V15.61ZM27.27 15.61H28V19.04H27.27V15.61ZM23.82 19.48H28.95V24.74H28.23V20.15H24.5V24.79H23.82V19.48ZM24.19 21.53H28.57V22.19H24.19V21.53ZM24.21 23.6H28.58V24.27H24.21V23.6ZM26.01 19.78H26.7V24.07H26.01V19.78ZM20.07 20.92C20.84 20.71 22 20.35 23.12 20L23.22 20.68C22.19 21.03 21.11 21.38 20.27 21.65L20.07 20.92ZM20.21 17.62H23.19V18.32H20.21V17.62ZM21.42 15.61H22.12V23.87C22.12 24.28 22.03 24.48 21.78 24.6C21.55 24.72 21.16 24.74 20.52 24.74C20.5 24.56 20.41 24.25 20.31 24.04C20.75 24.05 21.13 24.05 21.25 24.05C21.38 24.05 21.42 24.01 21.42 23.86V15.61ZM34.83 19.95H39.75V20.5H34.83V19.95ZM34.65 24.05H39.82V24.62H34.65V24.05ZM36.32 15.61H36.89V16.86H36.32V15.61ZM37.6 15.61H38.17V16.86H37.6V15.61ZM35.95 21.47V22.35H38.57V21.47H35.95ZM35.33 20.98H39.22V22.84H35.33V20.98ZM35.72 18.23V18.92H38.8V18.23H35.72ZM35.72 17.05V17.73H38.8V17.05H35.72ZM35.13 16.53H39.41V19.45H35.13V16.53ZM35.8 23.04L36.34 22.86C36.56 23.21 36.73 23.68 36.79 24.01L36.21 24.22C36.16 23.89 36 23.4 35.8 23.04ZM38.12 22.85L38.76 23.03C38.55 23.44 38.32 23.89 38.15 24.2L37.66 24.03C37.82 23.69 38.02 23.18 38.12 22.85ZM31.74 21.21H33.97V21.75H31.74V21.21ZM31.74 22.49H33.97V23.04H31.74V22.49ZM31.39 19.95H33.94V20.5H32.03V24.81H31.39V19.95ZM33.54 19.95H34.19V24.1C34.19 24.42 34.13 24.59 33.91 24.69C33.7 24.8 33.37 24.8 32.84 24.8C32.81 24.63 32.72 24.38 32.64 24.22C32.99 24.23 33.31 24.23 33.4 24.22C33.5 24.22 33.54 24.19 33.54 24.09V19.95ZM31.38 15.96H34.2V19H33.61V16.53H31.96V19H31.38V15.96ZM30.81 18.74H34.79V20.18H34.2V19.29H31.38V20.18H30.81V18.74ZM32.48 17.18H33.99V17.66H32.96V18.95H32.48V17.18ZM36.42 16.73H36.89V19.19H36.42V16.73ZM37.6 16.73H38.07V19.19H37.6V16.73ZM46.11 18.01H48.87V18.59H46.11V18.01ZM45.77 19.74V21.02H46.69V19.74H45.77ZM45.24 19.22H47.25V21.54H45.24V19.22ZM48.29 19.74V21.02H49.27V19.74H48.29ZM47.76 19.22H49.84V21.54H47.76V19.22ZM45.99 21.81L46.64 21.85C46.45 23.19 45.97 24.19 45.12 24.84C45.03 24.72 44.79 24.49 44.64 24.39C45.43 23.84 45.84 22.95 45.99 21.81ZM45.88 23.1L46.3 22.72C46.7 23.08 47.22 23.58 47.46 23.91L47.03 24.35C46.79 24.01 46.29 23.48 45.88 23.1ZM48.49 21.8L49.15 21.84C48.96 23.17 48.45 24.16 47.6 24.81C47.51 24.7 47.27 24.46 47.11 24.36C47.9 23.81 48.33 22.93 48.49 21.8ZM48.34 23.14L48.82 22.81C49.33 23.3 49.96 23.99 50.26 24.42L49.77 24.8C49.48 24.36 48.86 23.65 48.34 23.14ZM47.43 16.31C46.93 17.2 45.99 18.22 44.98 18.85C44.9 18.67 44.74 18.4 44.61 18.24C45.63 17.65 46.6 16.59 47.06 15.64H47.75C48.38 16.66 49.39 17.65 50.34 18.15C50.2 18.33 50.04 18.61 49.95 18.8C49 18.22 48 17.23 47.43 16.31ZM41.81 17.54H44.59V18.13H41.81V17.54ZM41.81 19.05H44.61V19.63H41.81V19.05ZM41.43 20.57H44.49V21.17H41.43V20.57ZM42.94 16.35H43.54V20.88H42.94V16.35ZM43.24 21.72L43.58 21.6C43.83 21.99 44.08 22.53 44.18 22.88L43.82 23.03C43.72 22.67 43.48 22.13 43.24 21.72ZM42.63 21.86L42.99 21.78C43.19 22.29 43.37 22.96 43.41 23.39L43.02 23.48C42.98 23.04 42.82 22.37 42.63 21.86ZM42.02 21.96L42.41 21.91C42.51 22.5 42.56 23.24 42.55 23.73L42.14 23.78C42.16 23.29 42.11 22.55 42.02 21.96ZM41.36 21.78L41.82 21.86C41.78 22.75 41.68 23.7 41.31 24.25L40.89 24.01C41.23 23.51 41.33 22.62 41.36 21.78ZM41.43 16.01H44.78V16.62H42.05V20.9H41.43V16.01ZM44.25 20.57H44.87C44.87 20.57 44.87 20.76 44.86 20.86C44.76 23.36 44.67 24.24 44.43 24.53C44.29 24.72 44.14 24.78 43.91 24.8C43.72 24.82 43.38 24.82 43.05 24.8C43.03 24.63 42.97 24.37 42.89 24.21C43.22 24.25 43.51 24.25 43.64 24.25C43.76 24.25 43.83 24.23 43.9 24.13C44.07 23.94 44.16 23.08 44.25 20.68V20.57ZM11.67 36.51H17.11V37.19H11.67V36.51ZM9.96 38.35H18.83V39.06H9.96V38.35ZM12.59 38.84H13.39C13.18 40.79 12.62 42.14 10.18 42.82C10.1 42.63 9.9 42.33 9.74 42.18C11.99 41.62 12.42 40.47 12.59 38.84ZM15.12 38.78H15.87V41.59C15.87 41.89 15.94 41.94 16.36 41.94C16.56 41.94 17.51 41.94 17.77 41.94C18.15 41.94 18.22 41.76 18.25 40.61C18.41 40.73 18.73 40.85 18.93 40.91C18.85 42.28 18.63 42.63 17.83 42.63C17.63 42.63 16.48 42.63 16.28 42.63C15.36 42.63 15.12 42.4 15.12 41.6V38.78ZM13.98 33.61H14.77V35.2H13.98V33.61ZM10.19 34.68H18.6V36.8H17.81V35.39H10.95V36.8H10.19V34.68ZM20.94 39.15H28.7V39.77H20.94V39.15ZM20.36 34.25H24.98V34.8H20.36V34.25ZM24.82 40.54H28.04V41.13H24.82V40.54ZM20.27 41.95H29.35V42.58H20.27V41.95ZM24.41 39.38H25.16V42.26H24.41V39.38ZM22.34 33.6H23.01V38.88H22.34V33.6ZM21.91 40.22H22.63V42.29H21.91V40.22ZM21.27 35.82V36.64H24.1V35.82H21.27ZM20.66 35.31H24.74V37.15H20.66V35.31ZM23 37.12C23.35 37.27 24.5 37.85 24.81 38.02L24.44 38.52C24.06 38.25 23.06 37.68 22.63 37.45L23 37.12ZM26.22 33.61L26.9 33.76C26.55 34.91 25.94 35.98 25.21 36.67C25.11 36.54 24.85 36.28 24.7 36.16C25.4 35.55 25.93 34.62 26.22 33.61ZM26.03 34.72H29.31V35.34H25.73L26.03 34.72ZM28.03 35L28.74 35.08C28.23 37.1 26.96 38.23 25.1 38.92C25.02 38.77 24.8 38.48 24.65 38.36C26.44 37.81 27.62 36.78 28.03 35ZM26.11 35.09C26.54 36.35 27.6 37.77 29.48 38.36C29.34 38.49 29.15 38.77 29.05 38.95C27.16 38.25 26.08 36.73 25.62 35.42L26.11 35.09ZM22.28 36.89L22.76 37.1C22.27 37.77 21.35 38.51 20.64 38.89C20.54 38.73 20.34 38.52 20.19 38.41C20.91 38.1 21.81 37.47 22.28 36.89ZM31.58 33.97H33.9V34.67H31.58V33.97ZM31.58 36.31H33.92V37.01H31.58V36.31ZM35.48 37.4H39.11V38.1H35.48V37.4ZM31.56 38.71H33.9V39.42H31.56V38.71ZM31.27 33.97H31.96V37.57C31.96 39.13 31.86 41.34 31.15 42.82C31.01 42.7 30.71 42.53 30.53 42.46C31.22 41.05 31.27 39.04 31.27 37.57V33.97ZM33.48 33.97H34.18V41.91C34.18 42.31 34.09 42.54 33.84 42.67C33.58 42.79 33.18 42.81 32.5 42.8C32.47 42.62 32.38 42.28 32.28 42.09C32.75 42.1 33.17 42.1 33.29 42.09C33.43 42.08 33.48 42.04 33.48 41.9V33.97ZM38.59 34H39.31V35.94C39.31 36.31 39.23 36.51 38.91 36.62C38.6 36.73 38.1 36.73 37.34 36.73C37.3 36.52 37.19 36.27 37.1 36.09C37.7 36.1 38.23 36.1 38.39 36.09C38.55 36.09 38.59 36.05 38.59 35.93V34ZM38.91 37.4H39.04L39.16 37.38L39.6 37.53C39.1 40.09 37.82 41.82 36.26 42.75C36.17 42.58 35.97 42.32 35.82 42.19C37.24 41.44 38.48 39.73 38.91 37.54V37.4ZM36.6 37.83C37.17 39.77 38.33 41.48 39.9 42.24C39.73 42.38 39.52 42.64 39.41 42.81C37.79 41.93 36.63 40.12 36 37.99L36.6 37.83ZM35.06 34H38.79V34.7H35.77V42.8H35.06V34ZM41.17 34.1H44.58V34.75H41.17V34.1ZM45.03 39.21H49.37V39.86H45.03V39.21ZM41.06 37.12H44.82V37.79H41.06V37.12ZM42.81 37.39H43.53V41.93C43.53 42.32 43.46 42.52 43.19 42.65C42.94 42.76 42.55 42.77 41.93 42.77C41.91 42.58 41.81 42.27 41.71 42.07C42.14 42.08 42.54 42.08 42.66 42.08C42.77 42.07 42.81 42.04 42.81 41.93V37.39ZM49.11 39.21H49.88C49.88 39.21 49.87 39.43 49.85 39.54C49.66 41.42 49.48 42.18 49.19 42.48C49.01 42.66 48.83 42.72 48.56 42.74C48.33 42.76 47.89 42.76 47.44 42.73C47.42 42.53 47.35 42.23 47.24 42.03C47.67 42.07 48.07 42.08 48.23 42.08C48.39 42.08 48.48 42.07 48.57 41.98C48.78 41.78 48.96 41.08 49.11 39.33V39.21ZM46.9 38.22H47.65C47.46 40.24 46.97 41.93 44.71 42.81C44.62 42.63 44.42 42.36 44.26 42.23C46.34 41.46 46.73 39.95 46.9 38.22ZM41.52 35.77L41.99 35.29C42.83 35.64 43.87 36.23 44.39 36.69L43.89 37.24C43.39 36.78 42.37 36.15 41.52 35.77ZM44.62 37.12H44.73L44.84 37.09L45.3 37.25C45.09 38.09 44.79 39.05 44.48 39.67L43.95 39.41C44.21 38.86 44.46 37.97 44.62 37.25V37.12ZM48.63 34.96L49.4 35.09C48.73 36.9 47.23 37.9 45.34 38.49C45.25 38.33 45.02 38.02 44.87 37.86C46.69 37.4 48.09 36.51 48.63 34.96ZM46.49 33.6L47.2 33.79C46.73 34.86 45.96 35.86 45.19 36.5C45.06 36.37 44.76 36.16 44.57 36.06C45.36 35.47 46.09 34.56 46.49 33.6ZM46.31 35.17C47.03 36.5 48.52 37.5 50.3 37.89C50.14 38.04 49.92 38.33 49.82 38.53C47.99 38.04 46.49 36.92 45.69 35.38L46.31 35.17ZM42.72 37.34L43.23 37.53C42.85 38.85 42.13 40.4 41.35 41.18C41.27 40.97 41.09 40.66 40.96 40.48C41.68 39.8 42.39 38.49 42.72 37.34ZM46.27 34.66H50.09V35.3H45.96L46.27 34.66ZM44.4 34.1H44.56L44.68 34.07L45.17 34.38C44.71 35.08 43.93 35.84 43.24 36.3C43.11 36.18 42.88 36.02 42.73 35.93C43.37 35.51 44.07 34.78 44.4 34.24V34.1Z" fill="black"/>
</svg>
