<svg width="68" height="68" viewBox="0 0 68 68" fill="none" xmlns="http://www.w3.org/2000/svg">
<g id="Group">
<path id="Vector" d="M7.54492 0.312485C6.35547 0.57225 4.64648 1.39256 3.62109 2.21288C1.51563 3.88085 0.09375 6.8203 0.09375 9.52733C0.09375 11.7285 1.06445 14.2305 2.55469 15.8437C5.45313 19.0019 9.89649 19.8496 13.7656 17.9629C15.3379 17.1973 17.1426 15.4199 17.9082 13.9023C19.084 11.5371 19.2891 8.87108 18.4551 6.50585C16.8828 1.99413 12.207 -0.67189 7.54492 0.312485ZM11.3594 2.28124C12.8223 2.65038 13.6699 3.14256 14.8047 4.26366C17.1699 6.60155 17.7168 9.99217 16.2129 12.9726C15.625 14.1348 14.2441 15.543 13.0957 16.1445C10.0742 17.7305 6.62891 17.1973 4.26367 14.8047C3.14258 13.6699 2.65039 12.8223 2.28125 11.3594C1.61133 8.76171 2.32227 6.19139 4.26367 4.26366C6.19141 2.32225 8.76172 1.61131 11.3594 2.28124Z" fill="white"/>
<path id="Vector_2" d="M5.58984 6.88872C5.01562 7.16215 4.70117 7.64067 4.70117 8.18754C4.70117 8.99419 5.68555 9.40434 6.24609 8.84379C6.39648 8.6934 6.58789 8.57036 6.65625 8.57036C6.73828 8.57036 6.91602 8.6934 7.06641 8.84379C7.62695 9.40434 8.61133 8.99419 8.61133 8.18754C8.61133 6.98442 6.90234 6.24614 5.58984 6.88872Z" fill="white"/>
<path id="Vector_3" d="M11.3184 6.88867C10.8398 7.13477 10.3477 7.79102 10.3477 8.20117C10.3477 8.55664 10.9629 9.11719 11.3457 9.11719C11.5234 9.11719 11.7969 8.99414 11.9609 8.84375C12.125 8.69336 12.2891 8.57031 12.3438 8.57031C12.3848 8.57031 12.5762 8.69336 12.7676 8.84375C13.4785 9.39063 14.3125 8.99414 14.3125 8.10547C14.3125 7.59961 13.8613 7.01172 13.2871 6.79297C12.7539 6.58789 11.8379 6.62891 11.3184 6.88867Z" fill="white"/>
<path id="Vector_4" d="M6.36936 11.6054C4.93381 12.084 6.25998 14.7636 8.21506 15.3379C10.2932 15.9531 12.467 15.0097 13.1506 13.1914C13.4651 12.3574 13.342 11.8926 12.7815 11.6465C12.1662 11.4004 11.8381 11.5644 11.4416 12.3301C11.2502 12.6992 10.9358 13.1093 10.7444 13.2461C10.3479 13.5468 9.44553 13.7109 8.926 13.5742C8.42014 13.4511 7.77756 12.8496 7.68186 12.4121C7.53147 11.7422 6.97092 11.4004 6.36936 11.6054Z" fill="white"/>
<path id="Vector_5" d="M30.8553 0.244181C28.2577 0.490274 25.4686 1.09184 22.9257 1.96684C19.8768 2.99223 19.1112 3.59379 19.7401 4.45512C20.1229 4.96098 20.5468 4.96098 21.8456 4.42777C26.494 2.51371 31.8261 1.6934 36.8026 2.14457C41.2596 2.54106 46.537 4.2227 49.9823 6.30082C50.8573 6.83402 51.4862 6.92973 51.8007 6.54691C52.621 5.60356 52.0604 5.08402 48.2186 3.25199C43.0096 0.777384 36.6932 -0.316366 30.8553 0.244181Z" fill="white"/>
<path id="Vector_6" d="M56.1484 0.380899C54.8359 0.96879 54.6035 1.41996 53.8379 4.57817C53.291 6.87504 53.25 6.98441 52.498 8.06449L51.7188 9.18559H49.791C47.6445 9.18559 47.3574 9.28129 46.8516 10.1153C46.5918 10.5254 46.5781 10.8399 46.5781 15.9258C46.5781 20.9434 46.5918 21.3262 46.8379 21.8047C47.2754 22.6661 47.6582 22.7891 49.75 22.7891C51.3223 22.7891 51.623 22.7481 51.9648 22.5293C52.3613 22.2559 52.375 22.2559 52.7852 22.5567C53.1953 22.8575 53.3184 22.8575 58.2949 22.8985C63.1484 22.9395 63.4082 22.9258 63.9141 22.6661C65.0078 22.1055 65.5957 20.9434 65.3223 19.877C65.1992 19.3711 65.2129 19.2891 65.5137 19.0157C66.1016 18.4688 66.3066 17.8946 66.2246 16.9649C66.1699 16.1582 66.1836 16.0899 66.5527 15.7344C67.0859 15.2149 67.2773 14.5723 67.1816 13.5469C67.1133 12.9043 67.1406 12.6582 67.291 12.5352C67.4004 12.4532 67.5918 12.1114 67.7148 11.7696C68.166 10.5801 67.6875 9.2266 66.6211 8.72074C66.0879 8.4473 65.8008 8.43363 62.6699 8.43363C60.8105 8.43363 59.293 8.40629 59.293 8.36527C59.293 8.33793 59.5391 7.25785 59.8398 5.9727C60.4551 3.37504 60.4961 2.73246 60.127 1.93949C59.4297 0.408243 57.6387 -0.302694 56.1484 0.380899ZM57.8301 2.17192C58.2402 2.39067 58.459 2.70512 58.4727 3.08793C58.4727 3.26567 58.1855 4.61918 57.8438 6.09574C57.2285 8.66605 57.2148 8.7891 57.4199 9.28129C57.8301 10.252 57.9395 10.2657 62.1641 10.3477L65.9238 10.4161L65.9648 10.7852C66.0195 11.209 65.582 11.5782 65.0078 11.5782C64.4609 11.5782 64.0508 12.043 64.1055 12.5762C64.1328 12.9043 64.2832 13.0957 64.7344 13.3965C65.6367 14.0118 65.4727 14.4903 64.2695 14.709C63.1074 14.9278 62.8887 15.7754 63.8047 16.5C64.6797 17.1973 64.4199 17.8672 63.2578 17.8672C62.8203 17.8672 62.3008 18.4004 62.3008 18.8653C62.3008 19.0157 62.5742 19.3848 62.916 19.6856C63.5996 20.3008 63.627 20.3965 63.2988 20.7657C63.0938 20.9981 62.7656 21.0118 58.4727 21.0118H53.8652L53.7148 20.67C53.6191 20.4786 53.4004 20.2598 53.209 20.1641L52.8672 20.0137V15.4746V10.9493L53.9609 9.30863L55.0547 7.66801L55.6699 5.15238C56.1895 3.06059 56.3535 2.5684 56.6406 2.30863C57.0234 1.96684 57.3789 1.92582 57.8301 2.17192ZM50.9258 15.9805L50.9531 20.875H49.7227H48.4922V15.9532V11.0176L49.6953 11.0586L50.8848 11.0996L50.9258 15.9805Z" fill="white"/>
<path id="Vector_7" d="M3.826 18.9883C3.0467 19.3711 1.18733 24.6758 0.585766 28.3262C-0.521656 34.8203 0.367016 42.0117 2.96467 47.6308C3.53889 48.8476 3.86702 49.0937 4.55061 48.7793C5.22053 48.4785 5.22053 48.0547 4.55061 46.4551C2.49983 41.5742 1.67952 36.2832 2.15803 31.1289C2.44514 27.9023 3.37483 24.2383 4.61897 21.3808C5.26155 19.9043 5.28889 19.4941 4.7967 19.1113C4.38655 18.7969 4.2635 18.7832 3.826 18.9883Z" fill="white"/>
<path id="Vector_8" d="M64.8301 23.541C64.6387 23.7188 64.4883 23.9512 64.4883 24.0469C64.4883 24.1426 64.6934 25.0586 64.9531 26.0703C65.7187 29.0918 65.9102 30.6777 65.9102 34C65.9102 37.1582 65.7324 38.7441 65.1035 41.3555C64.9121 42.1348 64.7617 42.9141 64.7617 43.0918C64.7617 43.502 65.2539 43.9805 65.6641 43.9805C66.4297 43.9805 66.7852 43.1602 67.3594 39.9883C68.207 35.2988 68.043 30.623 66.8672 25.7969C66.4844 24.2109 66.3203 23.7461 66.0469 23.5C65.6094 23.1035 65.2402 23.1172 64.8301 23.541Z" fill="white"/>
<path id="Vector_9" d="M23.9648 24.7852C22.9941 25.0996 21.791 26.3164 21.5039 27.3008C21.0391 28.8867 21.3398 30.1172 22.5156 31.2793C22.9395 31.7168 23.459 32.1133 23.6641 32.168C24.1699 32.291 24.1016 32.4414 23.4863 32.5508C22.4473 32.7148 20.834 33.6582 19.9043 34.6562C18.5234 36.1191 17.8672 37.6914 17.8672 39.5371C17.8672 40.3574 17.9219 40.5898 18.2227 41.0547C18.8789 42.0664 20.2051 42.75 22.3105 43.1738C23.6914 43.4473 27.0684 43.4199 28.5039 43.1191C29.5703 42.8867 29.6797 42.8867 30.7598 43.1191C32.3047 43.4473 35.6953 43.4473 37.2539 43.1191C38.3203 42.8867 38.4297 42.8867 39.5098 43.1191C40.9316 43.4199 44.3086 43.4473 45.6895 43.1738C47.7949 42.75 49.1211 42.0664 49.7773 41.0547C50.0781 40.5898 50.1328 40.3574 50.1328 39.4961C50.1328 37.623 49.2578 35.709 47.7676 34.3008C46.9473 33.5352 45.3613 32.6875 44.5 32.5508C43.8984 32.4414 43.8301 32.291 44.3359 32.168C44.541 32.1133 45.0605 31.7168 45.4844 31.2793C46.6602 30.1172 46.9609 28.8867 46.4961 27.3008C46.1816 26.2344 45.0059 25.0859 43.9121 24.7715C41.3555 24.0195 38.7852 25.9062 38.7852 28.5312C38.7852 29.9805 39.7559 31.5254 41.0137 32.0859C41.3691 32.25 41.5059 32.373 41.3828 32.4141C41.2734 32.4414 40.8223 32.5781 40.3848 32.7148C39.9473 32.8379 39.3184 33.125 38.9766 33.3301L38.3613 33.7266L37.8555 33.3984C37.4316 33.1387 36.3652 32.7012 35.3672 32.4004C35.2441 32.373 35.3672 32.25 35.709 32.0996C37.418 31.3203 38.3203 29.2559 37.7598 27.3691C37.4453 26.2754 36.2969 25.0996 35.2305 24.7852C33.6445 24.3203 32.4141 24.6211 31.252 25.7832C30.623 26.4121 30.418 26.7402 30.2402 27.3691C29.6797 29.2559 30.582 31.3203 32.291 32.0996C32.6328 32.25 32.7559 32.373 32.6328 32.4004C31.6348 32.7012 30.5684 33.1387 30.1445 33.3984L29.6387 33.7266L29.0234 33.3301C28.6816 33.125 28.0527 32.8379 27.6152 32.7148C27.1777 32.5781 26.7266 32.4414 26.6172 32.4141C26.4941 32.373 26.6309 32.25 26.9863 32.0859C28.2441 31.5254 29.2148 29.9805 29.2148 28.5312C29.2148 27.0684 28.2168 25.5371 26.9043 24.9355C26.0977 24.5801 24.8125 24.5117 23.9648 24.7852ZM26.1387 26.7539C26.7812 27.0684 27.3008 27.8477 27.3008 28.5176C27.3008 29.5703 26.2891 30.582 25.2363 30.582C24.2793 30.582 23.1992 29.5156 23.1992 28.5586C23.1992 27.834 23.7734 27 24.498 26.6719C25.0723 26.4121 25.4824 26.4395 26.1387 26.7539ZM34.9023 26.7676C35.5176 27.0547 36.0508 27.875 36.0508 28.5312C36.0508 29.5156 34.9844 30.582 34 30.582C33.0293 30.582 31.9492 29.5293 31.9492 28.5859C31.9492 27.8887 32.4551 27.0684 33.084 26.7676C33.8086 26.4121 34.1777 26.4121 34.9023 26.7676ZM43.8301 26.8496C44.7461 27.5469 45.0059 28.4492 44.541 29.3926C44.2129 30.0762 43.4473 30.582 42.7363 30.582C41.7109 30.5684 40.6992 29.5703 40.6992 28.5586C40.6992 27 42.6133 25.9473 43.8301 26.8496ZM27.4102 34.6699C27.793 34.8477 28.1211 35.0254 28.1211 35.0664C28.1211 35.1074 27.9434 35.4219 27.7246 35.7637C26.5898 37.5273 26.2344 39.9609 26.9316 41.0273C27.1367 41.3418 27.1367 41.3555 26.7266 41.4375C24.9629 41.793 21.2852 41.2051 20.1504 40.3984C19.7539 40.125 19.7539 40.084 19.8086 39.1953C19.959 37.1172 21.5586 35.1484 23.6504 34.4648C24.5391 34.1777 26.5078 34.2871 27.4102 34.6699ZM36.3379 34.7793C38.1152 35.6543 39.3457 37.4043 39.4414 39.209C39.4961 40.0703 39.4824 40.125 39.0996 40.3984C38.2246 41.0273 35.9688 41.5195 34 41.5195C32.0312 41.5195 29.7754 41.0273 28.9004 40.3984C28.5176 40.125 28.5039 40.0703 28.5586 39.209C28.6543 37.5547 29.707 35.8867 31.2246 34.998C32.209 34.4238 32.8652 34.2734 34.2188 34.3145C35.2988 34.3418 35.5859 34.4102 36.3379 34.7793ZM44.9785 34.7109C46.0586 35.2168 47.166 36.2969 47.6992 37.3906C48.0547 38.1152 48.1367 38.4297 48.1367 39.2363L48.1504 40.2207L47.4668 40.5898C47.0977 40.7949 46.3594 41.0547 45.8262 41.1777C44.6777 41.4512 42.3672 41.6016 41.4785 41.4648C40.8496 41.3691 40.8496 41.3691 41.0547 41.0547C41.7793 39.9473 41.4238 37.5684 40.2754 35.7637C40.0566 35.4219 39.8789 35.1074 39.8789 35.0664C39.8789 34.9844 41 34.4922 41.4512 34.3691C41.6016 34.3281 42.2852 34.3008 42.9551 34.3281C43.9531 34.3555 44.3359 34.4238 44.9785 34.7109Z" fill="white"/>
<path id="Vector_10" d="M48.7793 46.9336C46.2637 47.6035 44.3496 49.75 44.1719 52.1426C43.9805 54.4531 45.1289 57.1738 47.5215 60.1543C49.3399 62.4102 54.9043 67.6875 55.6289 67.8379C56.3672 68.002 56.7637 67.7695 58.6094 66.1016C64.7071 60.6055 67.291 57.0781 67.7969 53.5508C68.3438 49.791 65.4317 46.7012 61.3438 46.7148C59.375 46.7285 58.1035 47.248 56.8321 48.5742L56.0118 49.4219L55.1914 48.5742C54.3438 47.6855 53.3594 47.0977 52.3067 46.8652C51.4453 46.6602 49.6407 46.7012 48.7793 46.9336ZM52.1563 48.834C52.9082 49.0664 54.1387 50.0644 54.6309 50.8711C54.959 51.4043 55.4239 51.6367 56.1485 51.6367C56.5996 51.6367 56.7637 51.5547 57.1328 51.1309C58.541 49.5312 59.1289 49.0527 59.9219 48.8203C61.6035 48.3281 63.6953 48.793 64.8028 49.9141C67.0039 52.1152 66.0469 55.5742 61.9727 60.127C60.7559 61.4941 56.2305 65.7871 56.0118 65.7871C55.793 65.7871 51.5 61.7266 50.1739 60.25C45.9766 55.5879 44.9786 52.1152 47.2207 49.9277C48.1231 49.0527 49.1485 48.6562 50.5567 48.6426C51.0489 48.6289 51.7598 48.7246 52.1563 48.834Z" fill="white"/>
<path id="Vector_11" d="M1.5293 50.666C0.873047 50.9668 0.585938 51.2676 0.298828 51.9512C0.121094 52.3614 0.09375 53.25 0.09375 57.4063C0.09375 61.959 0.121094 62.4102 0.353516 62.9297C0.695313 63.6817 1.41992 64.2149 2.24023 64.3243L2.89648 64.42L2.96484 65.9649C3.01953 67.3047 3.07422 67.5508 3.29297 67.7149C3.58008 67.92 3.9082 67.961 4.25 67.8243C4.37305 67.7696 5.07031 66.9766 5.78125 66.0469L7.10742 64.3516H13.3418C20.3418 64.3516 20.082 64.3789 20.9434 63.3399L21.3535 62.8204L21.3945 57.5703C21.4219 52.9082 21.4082 52.2793 21.2031 51.8828C20.8887 51.2539 20.6016 50.9668 20.0273 50.666C19.5488 50.42 19.084 50.4063 10.7988 50.4063C2.62305 50.4063 2.03516 50.4336 1.5293 50.666ZM19.3438 52.4844C19.5762 52.7168 19.5762 62.0411 19.3438 62.2735C19.2207 62.3965 17.5938 62.4375 12.8496 62.4375C8.625 62.4375 6.42383 62.4922 6.21875 62.5879C6.04102 62.67 5.68555 63.0118 5.42578 63.3672L4.96094 64.0098L4.85156 63.4629C4.6875 62.6563 4.3457 62.4375 3.25195 62.4375C2.71875 62.4375 2.26758 62.3692 2.17188 62.2735C1.93945 62.0411 1.93945 52.7168 2.17188 52.4844C2.4043 52.252 19.1113 52.252 19.3438 52.4844Z" fill="white"/>
<path id="Vector_12" d="M5.22058 56.5586C4.86511 56.9551 4.89246 57.6387 5.27527 57.9531C5.74011 58.3223 6.30066 58.2676 6.64246 57.8437C6.99792 57.3789 6.99792 57.1055 6.64246 56.6406C6.28699 56.1895 5.58972 56.1484 5.22058 56.5586Z" fill="white"/>
<path id="Vector_13" d="M10.0741 56.5586C9.70496 56.9277 9.71863 57.5293 10.1151 57.8984C10.744 58.5 11.7147 58.0898 11.7147 57.2422C11.7147 57.0097 11.5917 56.709 11.4413 56.5586C11.2909 56.4082 10.9901 56.2851 10.7577 56.2851C10.5253 56.2851 10.2245 56.4082 10.0741 56.5586Z" fill="white"/>
<path id="Vector_14" d="M14.9826 56.5312C14.3127 57.0918 14.7775 58.1992 15.6799 58.1992C16.1037 58.1992 16.6369 57.666 16.6369 57.2422C16.6369 57.1055 16.5138 56.8457 16.3498 56.6406C16.008 56.2168 15.4474 56.1621 14.9826 56.5312Z" fill="white"/>
<path id="Vector_15" d="M46.578 63.4082C46.2362 63.5586 45.2929 63.9277 44.4589 64.2012C38.58 66.2246 32.1679 66.5117 26.2343 65.0078C25.0858 64.7207 25.0858 64.7207 24.7304 64.9941C24.4706 65.1855 24.3475 65.418 24.3202 65.7598C24.2655 66.416 24.5253 66.5801 26.3436 67.0039C29.0643 67.6602 30.6913 67.8242 33.9999 67.8242C37.5546 67.8242 39.1679 67.6328 42.4491 66.7988C44.4999 66.2793 47.9315 65.0352 48.1913 64.7207C48.5057 64.3516 48.5057 63.8594 48.2186 63.4902C47.8632 63.0391 47.4257 63.0254 46.578 63.4082Z" fill="white"/>
</g>
</svg>
