<svg width="76" height="70" viewBox="0 0 76 70" fill="none" xmlns="http://www.w3.org/2000/svg">
<g clip-path="url(#clip0_2456_1198)">
<path d="M37.5 67.9999V111.2H75L67.9 77.8999C67 74.2999 64.7 71.1999 61.5 69.1999L50.1 62.2999L37.5 67.8999V67.9999Z" fill="#94D646"/>
<path d="M0 111.2L7.1 77.9C8 74.3 10.3 71.2 13.5 69.2L22.4 63.8L24.8 62.3L27.2 63.4L33.7 66.3V65.1H42.1V66.7C43.9 65.3 45.7 63.3 46.5 60.4C46.5 60.4 48.8 62 50 63.6C50 63.6 50 71 42 76.9C42 76.9 42.9 72.8 37.3 70.1V111.2H0Z" fill="#74BC1F"/>
<path d="M27.5 48.6H47.7V60.5C47.7 60.5 45 68 37.6 68C30.2 68 27.5 60.5 27.5 60.5V48.6Z" fill="#FCC4A1"/>
<g style="mix-blend-mode:multiply" opacity="0.3">
<path d="M47.6 53.5999C44.2 56.4999 40 59.4 37.5 59.4C35 59.4 30.8 56.6 27.5 53.7V48.7H47.7V53.5999H47.6Z" fill="#FCC4A1"/>
</g>
<path d="M54.3 32.3C54.3 32.3 55.6 27.7 57.3 29C59.1 30.3 55.8 37.6 55.8 39.5C55.8 41.4 54 42.3 53.3 41L54.3 32.3Z" fill="#FCC4A1"/>
<path d="M20.7 32.3C20.7 32.3 19.4 27.7 17.7 29C15.9 30.3 19.2 37.6 19.2 39.5C19.2 41.4 21 42.3 21.7 41L20.7 32.3Z" fill="#FCC4A1"/>
<path d="M37.5 5C58.7 5 55 30.9 55 30.9L53.4 44.2C53.4 45.2 52.9 46.2 52.2 46.9C49.2 50 41.5 56.9 37.5 56.9C33.5 56.9 25.8 50 22.8 46.9C22.1 46.2 21.7 45.2 21.6 44.2L20 30.9C20 30.9 16.3 5 37.5 5Z" fill="#FCC4A1"/>
<path d="M54.4 35.7999H52.3V25.1999C52.3 25.1999 48 23.8999 46.8 17.5999C46.8 17.5999 40.8 26.3999 22.6 26.3999V35.7999H20.6L19.1 26.6999C19.1 26.6999 15.5 4.29993 37.5 4.29993C59.5 4.29993 55.9 26.1999 55.9 26.1999L54.3 35.7999H54.4Z" fill="#6B4427"/>
<path d="M51.8 8.49998C55.2 9.19998 59.2 11.6 57.4 26.1C57.4 26.1 53.1 26.4 50.7 23.3C48.3 20.2 47 16 47 16C47 16 39.9 26.1 17.3 26.7C17.3 26.7 13.9 0.0999756 36.5 0.0999756C59.1 0.0999756 51.8 5.89998 52 8.59998L51.8 8.49998Z" fill="#6B4427"/>
<path d="M37.5 67.9999C37.5 67.9999 29.6 66.3999 27.4 59.2999C27.4 59.2999 25.1 60.8999 24 62.3999C24 62.3999 24 69.4999 31.8 75.0999C31.8 75.0999 30.8 70.5999 37.5 67.9999Z" fill="#E6E6E6"/>
<path d="M37.5 67.9999C37.5 67.9999 45.4 66.3999 47.6 59.2999C47.6 59.2999 49.9 60.8999 51 62.3999C51 62.3999 51 69.4999 43.2 75.0999C43.2 75.0999 44.2 70.5999 37.5 67.9999Z" fill="#F2F2F2"/>
<path d="M64.3 11.3C64.3552 11.3 64.4 11.2552 64.4 11.2C64.4 11.1447 64.3552 11.1 64.3 11.1C64.2448 11.1 64.2 11.1447 64.2 11.2C64.2 11.2552 64.2448 11.3 64.3 11.3Z" fill="#65558F"/>
<path d="M64.3 10.7999V1.29993" stroke="#65558F" stroke-width="0.9" stroke-linecap="round" stroke-linejoin="round"/>
<path d="M64.3 1.2C64.3552 1.2 64.4 1.15523 64.4 1.1C64.4 1.04477 64.3552 1 64.3 1C64.2448 1 64.2 1.04477 64.2 1.1C64.2 1.15523 64.2448 1.2 64.3 1.2Z" fill="#65558F"/>
<path d="M63.8 1.09998H54.3" stroke="#65558F" stroke-width="0.9" stroke-linecap="round" stroke-linejoin="round"/>
<path d="M54.1 1.2C54.1552 1.2 54.2 1.15523 54.2 1.1C54.2 1.04477 54.1552 1 54.1 1C54.0448 1 54 1.04477 54 1.1C54 1.15523 54.0448 1.2 54.1 1.2Z" fill="#65558F"/>
<path d="M65 0.5H63.6V1.9H65V0.5Z" fill="#65558F" stroke="#65558F"/>
<path d="M20.2 1.29998C20.2552 1.29998 20.3 1.2552 20.3 1.19998C20.3 1.14475 20.2552 1.09998 20.2 1.09998C20.1448 1.09998 20.1 1.14475 20.1 1.19998C20.1 1.2552 20.1448 1.29998 20.2 1.29998Z" fill="#65558F"/>
<path d="M19.8 1.19995H10.3" stroke="#65558F" stroke-width="0.9" stroke-linecap="round" stroke-linejoin="round"/>
<path d="M10.1 1.29998C10.1552 1.29998 10.2 1.2552 10.2 1.19998C10.2 1.14475 10.1552 1.09998 10.1 1.09998C10.0448 1.09998 10 1.14475 10 1.19998C10 1.2552 10.0448 1.29998 10.1 1.29998Z" fill="#65558F"/>
<path d="M10.1 1.69995V11.2" stroke="#65558F" stroke-width="0.9" stroke-linecap="round" stroke-linejoin="round"/>
<path d="M10.1 11.4999C10.1552 11.4999 10.2 11.4552 10.2 11.3999C10.2 11.3447 10.1552 11.2999 10.1 11.2999C10.0448 11.2999 10 11.3447 10 11.3999C10 11.4552 10.0448 11.4999 10.1 11.4999Z" fill="#65558F"/>
<path d="M10.9 0.5H9.5V1.9H10.9V0.5Z" fill="#65558F" stroke="#65558F"/>
<path d="M11.2 45.1C11.2552 45.1 11.3 45.0553 11.3 45C11.3 44.9448 11.2552 44.9 11.2 44.9C11.1448 44.9 11.1 44.9448 11.1 45C11.1 45.0553 11.1448 45.1 11.2 45.1Z" fill="#65558F"/>
<path d="M11.2 45.5V55" stroke="#65558F" stroke-width="0.9" stroke-linecap="round" stroke-linejoin="round"/>
<path d="M11.2 55.3C11.2552 55.3 11.3 55.2552 11.3 55.2C11.3 55.1447 11.2552 55.1 11.2 55.1C11.1448 55.1 11.1 55.1447 11.1 55.2C11.1 55.2552 11.1448 55.3 11.2 55.3Z" fill="#65558F"/>
<path d="M11.7 55.2H21.2" stroke="#65558F" stroke-width="0.9" stroke-linecap="round" stroke-linejoin="round"/>
<path d="M21.4 55.3C21.4552 55.3 21.5 55.2552 21.5 55.2C21.5 55.1447 21.4552 55.1 21.4 55.1C21.3448 55.1 21.3 55.1447 21.3 55.2C21.3 55.2552 21.3448 55.3 21.4 55.3Z" fill="#65558F"/>
<path d="M11.9 54.4H10.5V55.8H11.9V54.4Z" fill="#65558F" stroke="#65558F"/>
<path d="M53.1 55.2C53.1552 55.2 53.2 55.1552 53.2 55.1C53.2 55.0448 53.1552 55 53.1 55C53.0448 55 53 55.0448 53 55.1C53 55.1552 53.0448 55.2 53.1 55.2Z" fill="#65558F"/>
<path d="M53.6 55.1H63.1" stroke="#65558F" stroke-width="0.9" stroke-linecap="round" stroke-linejoin="round"/>
<path d="M63.3 55.2C63.3552 55.2 63.4 55.1552 63.4 55.1C63.4 55.0448 63.3552 55 63.3 55C63.2448 55 63.2 55.0448 63.2 55.1C63.2 55.1552 63.2448 55.2 63.3 55.2Z" fill="#65558F"/>
<path d="M63.3 54.6V45.1" stroke="#65558F" stroke-width="0.9" stroke-linecap="round" stroke-linejoin="round"/>
<path d="M63.3 44.9999C63.3552 44.9999 63.4 44.9552 63.4 44.8999C63.4 44.8447 63.3552 44.7999 63.3 44.7999C63.2448 44.7999 63.2 44.8447 63.2 44.8999C63.2 44.9552 63.2448 44.9999 63.3 44.9999Z" fill="#65558F"/>
<path d="M63.8 54.4H62.4V55.8H63.8V54.4Z" fill="#65558F" stroke="#65558F"/>
<g style="mix-blend-mode:multiply" opacity="0.2">
<path d="M33.2 30.9L30 29H27L25.3 30.3L26.2 31.7L30.3 32L33.1 30.9H33.2Z" fill="#00FFFF"/>
</g>
<g style="mix-blend-mode:multiply" opacity="0.2">
<path d="M37.1 48.8999L32.9 48.3999L31.6 45.7999L35.1 43.2999L37.1 45.7999V48.9999V48.8999Z" fill="#00FFFF"/>
</g>
<path d="M25.4 30.3L27 29H30L33.2 30.9L30.4 32L26.3 31.7L25.4 30.3Z" stroke="#00FFFF" stroke-width="0.6" stroke-linecap="round" stroke-linejoin="round"/>
<path d="M33.3 30.9L34.7 35.4L35.1 30.9L32.4 26.9L31.8 28.3L33.3 30.9Z" stroke="#00FFFF" stroke-width="0.6" stroke-linecap="round" stroke-linejoin="round"/>
<path d="M33.3 30.9H35.1L37.1 30.5L32.4 26.9L37.1 26.6L32.8 22.5L32.3 24.8M32.3 24.8L27 25.5L27.8 23.2L32.3 24.8ZM32.3 24.8L32.5 26.9L28.7 27.3L30.1 28.9L31.8 28.2" stroke="#00FFFF" stroke-width="0.6" stroke-linecap="round" stroke-linejoin="round"/>
<path d="M24.2 25.2999L19 19.7999L25.4 24.6999L25.2 16.4999L21.7 12.2999" stroke="#00FFFF" stroke-width="0.6" stroke-linecap="round" stroke-linejoin="round"/>
<path d="M25.2 16.5L27.7 23.2L29.8 12.9L25.6 6L25.1 16.5H25.2Z" stroke="#00FFFF" stroke-width="0.6" stroke-linecap="round" stroke-linejoin="round"/>
<path d="M29.8 12.9L37 19L32.7 22.5L29.8 12.9ZM29.8 12.9L31.7 3.5L37 11.4V36M37 36L34.6 35.4L35 39L37 36ZM37 36V40.5L35.6 39.8H34.2L32.9 40.5L25.8 36.7L20.9 36.3L23.1 42.7L24.9 47.6L28.5 52.1L33.1 55.2L36.9 55.8V48.8L33.1 55.3" stroke="#00FFFF" stroke-width="0.6" stroke-linecap="round" stroke-linejoin="round"/>
<path d="M34.3 39.9L35.1 43.2L35.7 39.9" stroke="#00FFFF" stroke-width="0.6" stroke-linecap="round" stroke-linejoin="round"/>
<path d="M33 40.6L31.5 45.7L26.7 42.6L33 40.6Z" stroke="#00FFFF" stroke-width="0.6" stroke-linecap="round" stroke-linejoin="round"/>
<path d="M25.9 36.7L26.7 42.5L23.2 42.7L25.9 36.7Z" stroke="#00FFFF" stroke-width="0.6" stroke-linecap="round" stroke-linejoin="round"/>
<path d="M26.4 31.7L21.4 29.6L21.1 36.3L26.5 31.6L26.4 31.7ZM26.4 31.7L25.9 36.7L30.5 31.9M30.5 31.9L33.3 38.7L34.7 35.3L30.5 31.9Z" stroke="#00FFFF" stroke-width="0.6" stroke-linecap="round" stroke-linejoin="round"/>
<path d="M21.3 29.6L25.4 30.3" stroke="#00FFFF" stroke-width="0.6" stroke-linecap="round" stroke-linejoin="round"/>
<path d="M27 28.8999L28.6 27.2999L26.9 25.4999L25.9 27.8999L27.1 28.8999H27ZM27 28.8999L25.4 30.1999L25.9 27.7999L23.1 26.9999M23.1 26.9999L24.2 25.1999L25.4 24.5999L26.9 25.3999L23.1 26.9999ZM23.1 26.9999L21.4 29.4999L19.1 19.6999L21.8 12.0999L25.8 5.79993L31.9 3.29993L37.2 2.79993V11.1999L30 12.6999L25.3 16.2999L19.1 19.5999" stroke="#00FFFF" stroke-width="0.6" stroke-linecap="round" stroke-linejoin="round"/>
<path d="M33.3 38.7999L34.4 40.0999L35.2 38.9999L35.8 40.0999" stroke="#00FFFF" stroke-width="0.6" stroke-linecap="round" stroke-linejoin="round"/>
<path d="M35.1 43.2L37.1 40.5V45.7M35.1 43.2L37.1 45.7M35.1 43.2L31.6 45.7M37.1 45.7H31.6M37.1 45.7V48.8M31.6 45.7L37.1 48.8M31.6 45.7L32.9 48.3L37.1 48.8M31.6 45.7L28.7 52.1L37.1 48.8M31.6 45.7L25 47.6L26.7 42.6" stroke="#00FFFF" stroke-width="0.6" stroke-linecap="round" stroke-linejoin="round"/>
<path d="M32.8 48.2999L28.6 52.0999" stroke="#00FFFF" stroke-width="0.6" stroke-linecap="round" stroke-linejoin="round"/>
<path d="M33.2 38.7999L32.9 40.5999" stroke="#00FFFF" stroke-width="0.6" stroke-linecap="round" stroke-linejoin="round"/>
<path d="M37.6 55.7999C37.6 56.0999 37.4 56.2999 37.1 56.2999C36.8 56.2999 36.6 56.0999 36.6 55.7999C36.6 55.4999 36.8 55.2999 37.1 55.2999C37.4 55.2999 37.6 55.4999 37.6 55.7999Z" fill="white"/>
<path d="M37.6 48.9C37.6 49.2 37.4 49.4 37.1 49.4C36.8 49.4 36.6 49.2 36.6 48.9C36.6 48.6 36.8 48.4 37.1 48.4C37.4 48.4 37.6 48.6 37.6 48.9Z" fill="white"/>
<path d="M37.6 45.7C37.6 46 37.4 46.2 37.1 46.2C36.8 46.2 36.6 46 36.6 45.7C36.6 45.4 36.8 45.2 37.1 45.2C37.4 45.2 37.6 45.4 37.6 45.7Z" fill="white"/>
<path d="M37.6 40.5C37.6 40.8 37.4 41 37.1 41C36.8 41 36.6 40.8 36.6 40.5C36.6 40.2 36.8 40 37.1 40C37.4 40 37.6 40.2 37.6 40.5Z" fill="white"/>
<path d="M37.6 35.9C37.6 36.2 37.4 36.4 37.1 36.4C36.8 36.4 36.6 36.2 36.6 35.9C36.6 35.6 36.8 35.4 37.1 35.4C37.4 35.4 37.6 35.6 37.6 35.9Z" fill="white"/>
<path d="M37.6 30.5C37.6 30.8 37.4 31 37.1 31C36.8 31 36.6 30.8 36.6 30.5C36.6 30.2 36.8 30 37.1 30C37.4 30 37.6 30.2 37.6 30.5Z" fill="white"/>
<path d="M37.6 26.6C37.6 26.9 37.4 27.1 37.1 27.1C36.8 27.1 36.6 26.9 36.6 26.6C36.6 26.3 36.8 26.1 37.1 26.1C37.4 26.1 37.6 26.3 37.6 26.6Z" fill="white"/>
<path d="M37.6 19.1C37.6 19.4 37.4 19.6 37.1 19.6C36.8 19.6 36.6 19.4 36.6 19.1C36.6 18.8 36.8 18.6 37.1 18.6C37.4 18.6 37.6 18.8 37.6 19.1Z" fill="white"/>
<path d="M37.6 11.4C37.6 11.7 37.4 11.9 37.1 11.9C36.8 11.9 36.6 11.7 36.6 11.4C36.6 11.1 36.8 10.9 37.1 10.9C37.4 10.9 37.6 11.1 37.6 11.4Z" fill="white"/>
<path d="M37.6 3C37.6 3.3 37.4 3.5 37.1 3.5C36.8 3.5 36.6 3.3 36.6 3C36.6 2.7 36.8 2.5 37.1 2.5C37.4 2.5 37.6 2.7 37.6 3Z" fill="white"/>
<path d="M32.4 3.59998C32.4 3.89998 32.2 4.09998 31.9 4.09998C31.6 4.09998 31.4 3.89998 31.4 3.59998C31.4 3.29998 31.6 3.09998 31.9 3.09998C32.2 3.09998 32.4 3.29998 32.4 3.59998Z" fill="white"/>
<path d="M26.3 6C26.3 6.3 26.1 6.5 25.8 6.5C25.5 6.5 25.3 6.3 25.3 6C25.3 5.7 25.5 5.5 25.8 5.5C26.1 5.5 26.3 5.7 26.3 6Z" fill="white"/>
<path d="M25.7 16.5C25.7 16.8 25.5 17 25.2 17C24.9 17 24.7 16.8 24.7 16.5C24.7 16.2 24.9 16 25.2 16C25.5 16 25.7 16.2 25.7 16.5Z" fill="white"/>
<path d="M22.2 12.2999C22.2 12.5999 22 12.7999 21.7 12.7999C21.4 12.7999 21.2 12.5999 21.2 12.2999C21.2 11.9999 21.4 11.7999 21.7 11.7999C22 11.7999 22.2 11.9999 22.2 12.2999Z" fill="white"/>
<path d="M19.6 19.9C19.6 20.2 19.4 20.4 19.1 20.4C18.8 20.4 18.6 20.2 18.6 19.9C18.6 19.6 18.8 19.4 19.1 19.4C19.4 19.4 19.6 19.6 19.6 19.9Z" fill="white"/>
<path d="M33.3 22.6C33.3 22.9 33.1 23.1 32.8 23.1C32.5 23.1 32.3 22.9 32.3 22.6C32.3 22.3 32.5 22.1 32.8 22.1C33.1 22.1 33.3 22.3 33.3 22.6Z" fill="white"/>
<path d="M28.3 23.2C28.3 23.5 28.1 23.7 27.8 23.7C27.5 23.7 27.3 23.5 27.3 23.2C27.3 22.9 27.5 22.7 27.8 22.7C28.1 22.7 28.3 22.9 28.3 23.2Z" fill="white"/>
<path d="M26 24.7999C26 25.0999 25.8 25.2999 25.5 25.2999C25.2 25.2999 25 25.0999 25 24.7999C25 24.4999 25.2 24.2999 25.5 24.2999C25.8 24.2999 26 24.4999 26 24.7999Z" fill="white"/>
<path d="M24.7 25.2999C24.7 25.5999 24.5 25.7999 24.2 25.7999C23.9 25.7999 23.7 25.5999 23.7 25.2999C23.7 24.9999 23.9 24.7999 24.2 24.7999C24.5 24.7999 24.7 24.9999 24.7 25.2999Z" fill="white"/>
<path d="M32.2 25.4C31.9 25.4 31.7 25.2 31.7 24.9C31.7 24.6 31.9 24.4 32.2 24.4C32.5 24.4 32.7 24.6 32.7 24.9C32.7 25.2 32.5 25.4 32.2 25.4Z" fill="white"/>
<path d="M33.1 26.9C33.1 27.2 32.9 27.4 32.6 27.4C32.3 27.4 32.1 27.2 32.1 26.9C32.1 26.6 32.3 26.4 32.6 26.4C32.9 26.4 33.1 26.6 33.1 26.9Z" fill="white"/>
<path d="M26.9 26C26.6 26 26.4 25.8 26.4 25.5C26.4 25.2 26.6 25 26.9 25C27.2 25 27.4 25.2 27.4 25.5C27.4 25.8 27.2 26 26.9 26Z" fill="white"/>
<path d="M23.8 27.1C23.8 27.4 23.6 27.6 23.3 27.6C23 27.6 22.8 27.4 22.8 27.1C22.8 26.8 23 26.6 23.3 26.6C23.6 26.6 23.8 26.8 23.8 27.1Z" fill="white"/>
<path d="M21.9 29.6C21.9 29.9 21.7 30.1 21.4 30.1C21.1 30.1 20.9 29.9 20.9 29.6C20.9 29.3 21.1 29.1 21.4 29.1C21.7 29.1 21.9 29.3 21.9 29.6Z" fill="white"/>
<path d="M26.4 27.9C26.4 28.2 26.2 28.4 25.9 28.4C25.6 28.4 25.4 28.2 25.4 27.9C25.4 27.6 25.6 27.4 25.9 27.4C26.2 27.4 26.4 27.6 26.4 27.9Z" fill="white"/>
<path d="M26 30.2999C26 30.5999 25.8 30.7999 25.5 30.7999C25.2 30.7999 25 30.5999 25 30.2999C25 29.9999 25.2 29.7999 25.5 29.7999C25.8 29.7999 26 29.9999 26 30.2999Z" fill="white"/>
<path d="M26.9 31.7C26.9 32 26.7 32.2 26.4 32.2C26.1 32.2 25.9 32 25.9 31.7C25.9 31.4 26.1 31.2 26.4 31.2C26.7 31.2 26.9 31.4 26.9 31.7Z" fill="white"/>
<path d="M27.6 28.9C27.6 29.2 27.4 29.4 27.1 29.4C26.8 29.4 26.6 29.2 26.6 28.9C26.6 28.6 26.8 28.4 27.1 28.4C27.4 28.4 27.6 28.6 27.6 28.9Z" fill="white"/>
<path d="M29.2 27.4C29.2 27.7 29 27.9 28.7 27.9C28.4 27.9 28.2 27.7 28.2 27.4C28.2 27.1 28.4 26.9 28.7 26.9C29 26.9 29.2 27.1 29.2 27.4Z" fill="white"/>
<path d="M30.6 28.9C30.6 29.2 30.4 29.4 30.1 29.4C29.8 29.4 29.6 29.2 29.6 28.9C29.6 28.6 29.8 28.4 30.1 28.4C30.4 28.4 30.6 28.6 30.6 28.9Z" fill="white"/>
<path d="M32.3 28.2999C32.3 28.5999 32.1 28.7999 31.8 28.7999C31.5 28.7999 31.3 28.5999 31.3 28.2999C31.3 27.9999 31.5 27.7999 31.8 27.7999C32.1 27.7999 32.3 27.9999 32.3 28.2999Z" fill="white"/>
<path d="M33.8 30.9C33.8 31.2 33.6 31.4 33.3 31.4C33 31.4 32.8 31.2 32.8 30.9C32.8 30.6 33 30.4 33.3 30.4C33.6 30.4 33.8 30.6 33.8 30.9Z" fill="white"/>
<path d="M35.6 30.9C35.6 31.2 35.4 31.4 35.1 31.4C34.8 31.4 34.6 31.2 34.6 30.9C34.6 30.6 34.8 30.4 35.1 30.4C35.4 30.4 35.6 30.6 35.6 30.9Z" fill="white"/>
<path d="M35.2 35.2999C35.2 35.5999 35 35.7999 34.7 35.7999C34.4 35.7999 34.2 35.5999 34.2 35.2999C34.2 34.9999 34.4 34.7999 34.7 34.7999C35 34.7999 35.2 34.9999 35.2 35.2999Z" fill="white"/>
<path d="M31 32C31 32.3 30.8 32.5 30.5 32.5C30.2 32.5 30 32.3 30 32C30 31.7 30.2 31.5 30.5 31.5C30.8 31.5 31 31.7 31 32Z" fill="white"/>
<path d="M33.8 38.7999C33.8 39.0999 33.6 39.2999 33.3 39.2999C33 39.2999 32.8 39.0999 32.8 38.7999C32.8 38.4999 33 38.2999 33.3 38.2999C33.6 38.2999 33.8 38.4999 33.8 38.7999Z" fill="white"/>
<path d="M35.6 38.9C35.6 39.2 35.4 39.4 35.1 39.4C34.8 39.4 34.6 39.2 34.6 38.9C34.6 38.6 34.8 38.4 35.1 38.4C35.4 38.4 35.6 38.6 35.6 38.9Z" fill="white"/>
<path d="M36.2 40C36.2 40.3 36 40.5 35.7 40.5C35.4 40.5 35.2 40.3 35.2 40C35.2 39.7 35.4 39.5 35.7 39.5C36 39.5 36.2 39.7 36.2 40Z" fill="white"/>
<path d="M34.8 40C34.8 40.3 34.6 40.5 34.3 40.5C34 40.5 33.8 40.3 33.8 40C33.8 39.7 34 39.5 34.3 39.5C34.6 39.5 34.8 39.7 34.8 40Z" fill="white"/>
<path d="M35.6 43.2C35.6 43.5 35.4 43.7 35.1 43.7C34.8 43.7 34.6 43.5 34.6 43.2C34.6 42.9 34.8 42.7 35.1 42.7C35.4 42.7 35.6 42.9 35.6 43.2Z" fill="white"/>
<path d="M31.6 46.2C31.3 46.2 31.1 46 31.1 45.7C31.1 45.4 31.3 45.2 31.6 45.2C31.9 45.2 32.1 45.4 32.1 45.7C32.1 46 31.9 46.2 31.6 46.2Z" fill="white"/>
<path d="M32.9 48.9C32.6 48.9 32.4 48.7 32.4 48.4C32.4 48.1 32.6 47.9 32.9 47.9C33.2 47.9 33.4 48.1 33.4 48.4C33.4 48.7 33.2 48.9 32.9 48.9Z" fill="white"/>
<path d="M26.7 43.1C26.4 43.1 26.2 42.9 26.2 42.6C26.2 42.3 26.4 42.1 26.7 42.1C27 42.1 27.2 42.3 27.2 42.6C27.2 42.9 27 43.1 26.7 43.1Z" fill="white"/>
<path d="M33.5 40.6C33.5 40.9 33.3 41.1 33 41.1C32.7 41.1 32.5 40.9 32.5 40.6C32.5 40.3 32.7 40.1 33 40.1C33.3 40.1 33.5 40.3 33.5 40.6Z" fill="white"/>
<path d="M26.4 36.7C26.4 37 26.2 37.2 25.9 37.2C25.6 37.2 25.4 37 25.4 36.7C25.4 36.4 25.6 36.2 25.9 36.2C26.2 36.2 26.4 36.4 26.4 36.7Z" fill="white"/>
<path d="M21.5 36.4C21.5 36.7 21.3 36.9 21 36.9C20.7 36.9 20.5 36.7 20.5 36.4C20.5 36.1 20.7 35.9 21 35.9C21.3 35.9 21.5 36.1 21.5 36.4Z" fill="white"/>
<path d="M23.7 42.7C23.7 43 23.5 43.2 23.2 43.2C22.9 43.2 22.7 43 22.7 42.7C22.7 42.4 22.9 42.2 23.2 42.2C23.5 42.2 23.7 42.4 23.7 42.7Z" fill="white"/>
<path d="M30.4 12.9C30.4 13.2 30.2 13.4 29.9 13.4C29.6 13.4 29.4 13.2 29.4 12.9C29.4 12.6 29.6 12.4 29.9 12.4C30.2 12.4 30.4 12.6 30.4 12.9Z" fill="white"/>
<path d="M34 55.2999C34 55.5999 33.8 55.7999 33.5 55.7999C33.2 55.7999 33 55.5999 33 55.2999C33 54.9999 33.2 54.7999 33.5 54.7999C33.8 54.7999 34 54.9999 34 55.2999Z" fill="white"/>
<path d="M29.2 52.1C29.2 52.4 29 52.6 28.7 52.6C28.4 52.6 28.2 52.4 28.2 52.1C28.2 51.8 28.4 51.6 28.7 51.6C29 51.6 29.2 51.8 29.2 52.1Z" fill="white"/>
<path d="M25.5 47.6C25.5 47.9 25.3 48.1 25 48.1C24.7 48.1 24.5 47.9 24.5 47.6C24.5 47.3 24.7 47.1 25 47.1C25.3 47.1 25.5 47.3 25.5 47.6Z" fill="white"/>
</g>
<defs>
<clipPath id="clip0_2456_1198">
<rect width="76" height="70" fill="white"/>
</clipPath>
</defs>
</svg>
